<?xml version="1.0" encoding="utf-8" standalone="no"?>
<!DOCTYPE svg PUBLIC "-//W3C//DTD SVG 1.1//EN"
  "http://www.w3.org/Graphics/SVG/1.1/DTD/svg11.dtd">
<svg xmlns:xlink="http://www.w3.org/1999/xlink" width="432pt" height="396pt" viewBox="0 0 432 396" xmlns="http://www.w3.org/2000/svg" version="1.1">
 <metadata>
  <rdf:RDF xmlns:dc="http://purl.org/dc/elements/1.1/" xmlns:cc="http://creativecommons.org/ns#" xmlns:rdf="http://www.w3.org/1999/02/22-rdf-syntax-ns#">
   <cc:Work>
    <dc:type rdf:resource="http://purl.org/dc/dcmitype/StillImage"/>
    <dc:date>2025-05-27T13:49:49.230241</dc:date>
    <dc:format>image/svg+xml</dc:format>
    <dc:creator>
     <cc:Agent>
      <dc:title>Matplotlib v3.9.2, https://matplotlib.org/</dc:title>
     </cc:Agent>
    </dc:creator>
   </cc:Work>
  </rdf:RDF>
 </metadata>
 <defs>
  <style type="text/css">*{stroke-linejoin: round; stroke-linecap: butt}</style>
 </defs>
 <g id="figure_1">
  <g id="patch_1">
   <path d="M 0 396 
L 432 396 
L 432 0 
L 0 0 
L 0 396 
z
" style="fill: none"/>
  </g>
  <g id="axes_1">
   <g id="patch_2">
    <path d="M 65.46142 334.88673 
L 428.99976 334.88673 
L 428.99976 3.00024 
L 65.46142 3.00024 
z
" style="fill: #ffffff"/>
   </g>
   <g id="matplotlib.axis_1">
    <g id="xtick_1">
     <g id="line2d_1">
      <defs>
       <path id="mdafa2510e5" d="M 0 0 
L 0 3.5 
" style="stroke: #000000; stroke-width: 0.8"/>
      </defs>
      <g>
       <use xlink:href="#mdafa2510e5" x="72.452542" y="334.88673" style="stroke: #000000; stroke-width: 0.8"/>
      </g>
     </g>
     <g id="text_1">
      <!-- $\mathdefault{0}$ -->
      <g transform="translate(66.969685 358.491136) scale(0.24 -0.24)">
       <defs>
        <path id="CMR17-30" d="M 2688 2025 
C 2688 2416 2682 3080 2413 3591 
C 2176 4039 1798 4198 1466 4198 
C 1158 4198 768 4058 525 3597 
C 269 3118 243 2524 243 2025 
C 243 1661 250 1106 448 619 
C 723 -39 1216 -128 1466 -128 
C 1760 -128 2208 -7 2470 600 
C 2662 1042 2688 1559 2688 2025 
z
M 1466 -26 
C 1056 -26 813 325 723 812 
C 653 1188 653 1738 653 2096 
C 653 2588 653 2997 736 3387 
C 858 3929 1216 4096 1466 4096 
C 1728 4096 2067 3923 2189 3400 
C 2272 3036 2278 2607 2278 2096 
C 2278 1680 2278 1169 2202 792 
C 2067 95 1690 -26 1466 -26 
z
" transform="scale(0.015625)"/>
       </defs>
       <use xlink:href="#CMR17-30" transform="scale(0.996264)"/>
      </g>
     </g>
    </g>
    <g id="xtick_2">
     <g id="line2d_2">
      <g>
       <use xlink:href="#mdafa2510e5" x="142.363761" y="334.88673" style="stroke: #000000; stroke-width: 0.8"/>
      </g>
     </g>
     <g id="text_2">
      <!-- $\mathdefault{1}$ -->
      <g transform="translate(136.880904 358.491136) scale(0.24 -0.24)">
       <defs>
        <path id="CMR17-31" d="M 1702 4058 
C 1702 4192 1696 4192 1606 4192 
C 1357 3916 979 3827 621 3827 
C 602 3827 570 3827 563 3808 
C 557 3795 557 3782 557 3648 
C 755 3648 1088 3686 1344 3839 
L 1344 461 
C 1344 236 1331 160 781 160 
L 589 160 
L 589 0 
C 896 0 1216 0 1523 0 
C 1830 0 2150 0 2458 0 
L 2458 160 
L 2266 160 
C 1715 160 1702 230 1702 458 
L 1702 4058 
z
" transform="scale(0.015625)"/>
       </defs>
       <use xlink:href="#CMR17-31" transform="scale(0.996264)"/>
      </g>
     </g>
    </g>
    <g id="xtick_3">
     <g id="line2d_3">
      <g>
       <use xlink:href="#mdafa2510e5" x="212.27498" y="334.88673" style="stroke: #000000; stroke-width: 0.8"/>
      </g>
     </g>
     <g id="text_3">
      <!-- $\mathdefault{2}$ -->
      <g transform="translate(206.792123 358.491136) scale(0.24 -0.24)">
       <defs>
        <path id="CMR17-32" d="M 2669 989 
L 2554 989 
C 2490 536 2438 459 2413 420 
C 2381 369 1920 369 1830 369 
L 602 369 
C 832 619 1280 1072 1824 1597 
C 2214 1967 2669 2402 2669 3035 
C 2669 3790 2067 4224 1395 4224 
C 691 4224 262 3604 262 3030 
C 262 2780 448 2748 525 2748 
C 589 2748 781 2787 781 3010 
C 781 3207 614 3264 525 3264 
C 486 3264 448 3258 422 3245 
C 544 3790 915 4058 1306 4058 
C 1862 4058 2227 3617 2227 3035 
C 2227 2479 1901 2000 1536 1584 
L 262 146 
L 262 0 
L 2515 0 
L 2669 989 
z
" transform="scale(0.015625)"/>
       </defs>
       <use xlink:href="#CMR17-32" transform="scale(0.996264)"/>
      </g>
     </g>
    </g>
    <g id="xtick_4">
     <g id="line2d_4">
      <g>
       <use xlink:href="#mdafa2510e5" x="282.1862" y="334.88673" style="stroke: #000000; stroke-width: 0.8"/>
      </g>
     </g>
     <g id="text_4">
      <!-- $\mathdefault{3}$ -->
      <g transform="translate(276.703342 358.491136) scale(0.24 -0.24)">
       <defs>
        <path id="CMR17-33" d="M 1414 2157 
C 1984 2157 2234 1662 2234 1090 
C 2234 320 1824 25 1453 25 
C 1114 25 563 194 390 693 
C 422 680 454 680 486 680 
C 640 680 755 782 755 948 
C 755 1133 614 1216 486 1216 
C 378 1216 211 1165 211 926 
C 211 335 787 -128 1466 -128 
C 2176 -128 2720 430 2720 1085 
C 2720 1707 2208 2157 1600 2227 
C 2086 2328 2554 2756 2554 3329 
C 2554 3820 2048 4179 1472 4179 
C 890 4179 378 3829 378 3329 
C 378 3110 544 3072 627 3072 
C 762 3072 877 3155 877 3321 
C 877 3486 762 3569 627 3569 
C 602 3569 570 3569 544 3557 
C 730 3959 1235 4032 1459 4032 
C 1683 4032 2106 3925 2106 3320 
C 2106 3143 2080 2828 1862 2550 
C 1670 2304 1453 2304 1242 2284 
C 1210 2284 1062 2269 1037 2269 
C 992 2263 966 2257 966 2208 
C 966 2163 973 2157 1101 2157 
L 1414 2157 
z
" transform="scale(0.015625)"/>
       </defs>
       <use xlink:href="#CMR17-33" transform="scale(0.996264)"/>
      </g>
     </g>
    </g>
    <g id="xtick_5">
     <g id="line2d_5">
      <g>
       <use xlink:href="#mdafa2510e5" x="352.097419" y="334.88673" style="stroke: #000000; stroke-width: 0.8"/>
      </g>
     </g>
     <g id="text_5">
      <!-- $\mathdefault{4}$ -->
      <g transform="translate(346.614562 358.491136) scale(0.24 -0.24)">
       <defs>
        <path id="CMR17-34" d="M 2150 4122 
C 2150 4256 2144 4256 2029 4256 
L 128 1254 
L 128 1088 
L 1779 1088 
L 1779 457 
C 1779 224 1766 160 1318 160 
L 1197 160 
L 1197 0 
C 1402 0 1747 0 1965 0 
C 2182 0 2528 0 2733 0 
L 2733 160 
L 2611 160 
C 2163 160 2150 224 2150 457 
L 2150 1088 
L 2803 1088 
L 2803 1254 
L 2150 1254 
L 2150 4122 
z
M 1798 3703 
L 1798 1254 
L 256 1254 
L 1798 3703 
z
" transform="scale(0.015625)"/>
       </defs>
       <use xlink:href="#CMR17-34" transform="scale(0.996264)"/>
      </g>
     </g>
    </g>
    <g id="xtick_6">
     <g id="line2d_6">
      <g>
       <use xlink:href="#mdafa2510e5" x="422.008638" y="334.88673" style="stroke: #000000; stroke-width: 0.8"/>
      </g>
     </g>
     <g id="text_6">
      <!-- $\mathdefault{5}$ -->
      <g transform="translate(416.525781 358.491136) scale(0.24 -0.24)">
       <defs>
        <path id="CMR17-35" d="M 730 3692 
C 794 3666 1056 3584 1325 3584 
C 1920 3584 2246 3911 2432 4100 
C 2432 4157 2432 4192 2394 4192 
C 2387 4192 2374 4192 2323 4163 
C 2099 4058 1837 3973 1517 3973 
C 1325 3973 1037 3999 723 4139 
C 653 4171 640 4171 634 4171 
C 602 4171 595 4164 595 4037 
L 595 2203 
C 595 2089 595 2057 659 2057 
C 691 2057 704 2070 736 2114 
C 941 2401 1222 2522 1542 2522 
C 1766 2522 2246 2382 2246 1289 
C 2246 1085 2246 715 2054 421 
C 1894 159 1645 25 1370 25 
C 947 25 518 320 403 814 
C 429 807 480 795 506 795 
C 589 795 749 840 749 1038 
C 749 1210 627 1280 506 1280 
C 358 1280 262 1190 262 1011 
C 262 454 704 -128 1382 -128 
C 2042 -128 2669 440 2669 1264 
C 2669 2030 2170 2624 1549 2624 
C 1222 2624 947 2503 730 2274 
L 730 3692 
z
" transform="scale(0.015625)"/>
       </defs>
       <use xlink:href="#CMR17-35" transform="scale(0.996264)"/>
      </g>
     </g>
    </g>
    <g id="xtick_7">
     <g id="line2d_7">
      <defs>
       <path id="m1e75e00d24" d="M 0 0 
L 0 2 
" style="stroke: #000000; stroke-width: 0.6"/>
      </defs>
      <g>
       <use xlink:href="#m1e75e00d24" x="86.434786" y="334.88673" style="stroke: #000000; stroke-width: 0.6"/>
      </g>
     </g>
    </g>
    <g id="xtick_8">
     <g id="line2d_8">
      <g>
       <use xlink:href="#m1e75e00d24" x="100.41703" y="334.88673" style="stroke: #000000; stroke-width: 0.6"/>
      </g>
     </g>
    </g>
    <g id="xtick_9">
     <g id="line2d_9">
      <g>
       <use xlink:href="#m1e75e00d24" x="114.399274" y="334.88673" style="stroke: #000000; stroke-width: 0.6"/>
      </g>
     </g>
    </g>
    <g id="xtick_10">
     <g id="line2d_10">
      <g>
       <use xlink:href="#m1e75e00d24" x="128.381517" y="334.88673" style="stroke: #000000; stroke-width: 0.6"/>
      </g>
     </g>
    </g>
    <g id="xtick_11">
     <g id="line2d_11">
      <g>
       <use xlink:href="#m1e75e00d24" x="156.346005" y="334.88673" style="stroke: #000000; stroke-width: 0.6"/>
      </g>
     </g>
    </g>
    <g id="xtick_12">
     <g id="line2d_12">
      <g>
       <use xlink:href="#m1e75e00d24" x="170.328249" y="334.88673" style="stroke: #000000; stroke-width: 0.6"/>
      </g>
     </g>
    </g>
    <g id="xtick_13">
     <g id="line2d_13">
      <g>
       <use xlink:href="#m1e75e00d24" x="184.310493" y="334.88673" style="stroke: #000000; stroke-width: 0.6"/>
      </g>
     </g>
    </g>
    <g id="xtick_14">
     <g id="line2d_14">
      <g>
       <use xlink:href="#m1e75e00d24" x="198.292737" y="334.88673" style="stroke: #000000; stroke-width: 0.6"/>
      </g>
     </g>
    </g>
    <g id="xtick_15">
     <g id="line2d_15">
      <g>
       <use xlink:href="#m1e75e00d24" x="226.257224" y="334.88673" style="stroke: #000000; stroke-width: 0.6"/>
      </g>
     </g>
    </g>
    <g id="xtick_16">
     <g id="line2d_16">
      <g>
       <use xlink:href="#m1e75e00d24" x="240.239468" y="334.88673" style="stroke: #000000; stroke-width: 0.6"/>
      </g>
     </g>
    </g>
    <g id="xtick_17">
     <g id="line2d_17">
      <g>
       <use xlink:href="#m1e75e00d24" x="254.221712" y="334.88673" style="stroke: #000000; stroke-width: 0.6"/>
      </g>
     </g>
    </g>
    <g id="xtick_18">
     <g id="line2d_18">
      <g>
       <use xlink:href="#m1e75e00d24" x="268.203956" y="334.88673" style="stroke: #000000; stroke-width: 0.6"/>
      </g>
     </g>
    </g>
    <g id="xtick_19">
     <g id="line2d_19">
      <g>
       <use xlink:href="#m1e75e00d24" x="296.168444" y="334.88673" style="stroke: #000000; stroke-width: 0.6"/>
      </g>
     </g>
    </g>
    <g id="xtick_20">
     <g id="line2d_20">
      <g>
       <use xlink:href="#m1e75e00d24" x="310.150687" y="334.88673" style="stroke: #000000; stroke-width: 0.6"/>
      </g>
     </g>
    </g>
    <g id="xtick_21">
     <g id="line2d_21">
      <g>
       <use xlink:href="#m1e75e00d24" x="324.132931" y="334.88673" style="stroke: #000000; stroke-width: 0.6"/>
      </g>
     </g>
    </g>
    <g id="xtick_22">
     <g id="line2d_22">
      <g>
       <use xlink:href="#m1e75e00d24" x="338.115175" y="334.88673" style="stroke: #000000; stroke-width: 0.6"/>
      </g>
     </g>
    </g>
    <g id="xtick_23">
     <g id="line2d_23">
      <g>
       <use xlink:href="#m1e75e00d24" x="366.079663" y="334.88673" style="stroke: #000000; stroke-width: 0.6"/>
      </g>
     </g>
    </g>
    <g id="xtick_24">
     <g id="line2d_24">
      <g>
       <use xlink:href="#m1e75e00d24" x="380.061907" y="334.88673" style="stroke: #000000; stroke-width: 0.6"/>
      </g>
     </g>
    </g>
    <g id="xtick_25">
     <g id="line2d_25">
      <g>
       <use xlink:href="#m1e75e00d24" x="394.04415" y="334.88673" style="stroke: #000000; stroke-width: 0.6"/>
      </g>
     </g>
    </g>
    <g id="xtick_26">
     <g id="line2d_26">
      <g>
       <use xlink:href="#m1e75e00d24" x="408.026394" y="334.88673" style="stroke: #000000; stroke-width: 0.6"/>
      </g>
     </g>
    </g>
    <g id="text_7">
     <!-- t [ms] -->
     <g transform="translate(217.614029 386.545722) scale(0.26 -0.26)">
      <defs>
       <path id="CMR17-74" d="M 966 2560 
L 1862 2560 
L 1862 2725 
L 966 2725 
L 966 3904 
L 851 3904 
C 838 3245 614 2668 70 2668 
L 70 2560 
L 627 2560 
L 627 771 
C 627 650 627 -64 1370 -64 
C 1747 -64 1965 306 1965 777 
L 1965 1140 
L 1850 1140 
L 1850 783 
C 1850 344 1677 51 1408 51 
C 1222 51 966 178 966 758 
L 966 2560 
z
" transform="scale(0.015625)"/>
       <path id="CMR17-5b" d="M 1504 -1600 
L 1504 -1377 
L 902 -1377 
L 902 4544 
L 1504 4544 
L 1504 4767 
L 678 4767 
L 678 -1600 
L 1504 -1600 
z
" transform="scale(0.015625)"/>
       <path id="CMR17-6d" d="M 4326 1933 
C 4326 2252 4269 2790 3507 2790 
C 3072 2790 2771 2496 2656 2151 
L 2650 2151 
C 2573 2676 2195 2790 1837 2790 
C 1331 2790 1069 2400 973 2144 
L 966 2144 
L 966 2790 
L 211 2720 
L 211 2554 
C 589 2554 646 2515 646 2208 
L 646 428 
C 646 184 621 153 211 153 
L 211 -13 
C 365 0 646 0 813 0 
C 979 0 1267 0 1421 -13 
L 1421 153 
C 1011 153 986 178 986 428 
L 986 1658 
C 986 2247 1344 2688 1792 2688 
C 2266 2688 2317 2266 2317 1958 
L 2317 428 
C 2317 184 2291 153 1882 153 
L 1882 -13 
C 2035 0 2317 0 2483 0 
C 2650 0 2938 0 3091 -13 
L 3091 153 
C 2682 153 2656 178 2656 428 
L 2656 1658 
C 2656 2247 3014 2688 3462 2688 
C 3936 2688 3987 2266 3987 1958 
L 3987 428 
C 3987 184 3962 153 3552 153 
L 3552 -13 
C 3706 0 3987 0 4154 0 
C 4320 0 4608 0 4762 -13 
L 4762 153 
C 4352 153 4326 178 4326 428 
L 4326 1933 
z
" transform="scale(0.015625)"/>
       <path id="CMR17-73" d="M 1978 2697 
C 1978 2813 1971 2819 1933 2819 
C 1907 2819 1901 2813 1824 2717 
C 1805 2691 1747 2626 1728 2601 
C 1523 2819 1235 2819 1126 2819 
C 416 2819 160 2447 160 2076 
C 160 1498 813 1365 998 1325 
C 1402 1243 1542 1217 1677 1101 
C 1760 1025 1901 884 1901 654 
C 1901 384 1747 38 1158 38 
C 602 38 403 460 288 1021 
C 269 1110 269 1117 218 1117 
C 166 1117 160 1110 160 983 
L 160 63 
C 160 -51 166 -58 205 -58 
C 237 -58 243 -51 275 0 
C 314 57 410 211 448 276 
C 576 103 800 -64 1158 -64 
C 1792 -64 2131 283 2131 784 
C 2131 1112 1958 1285 1875 1362 
C 1683 1561 1459 1606 1190 1657 
C 838 1735 390 1825 390 2217 
C 390 2383 480 2737 1126 2737 
C 1811 2737 1850 2094 1862 1888 
C 1869 1856 1901 1849 1920 1849 
C 1978 1849 1978 1869 1978 1978 
L 1978 2697 
z
" transform="scale(0.015625)"/>
       <path id="CMR17-5d" d="M 915 4767 
L 90 4767 
L 90 4544 
L 691 4544 
L 691 -1377 
L 90 -1377 
L 90 -1600 
L 915 -1600 
L 915 4767 
z
" transform="scale(0.015625)"/>
      </defs>
      <use xlink:href="#CMR17-74" transform="scale(0.996264)"/>
      <use xlink:href="#CMR17-5b" transform="translate(65.356734 0) scale(0.996264)"/>
      <use xlink:href="#CMR17-6d" transform="translate(90.227793 0) scale(0.996264)"/>
      <use xlink:href="#CMR17-73" transform="translate(167.147382 0) scale(0.996264)"/>
      <use xlink:href="#CMR17-5d" transform="translate(202.94872 0) scale(0.996264)"/>
     </g>
    </g>
   </g>
   <g id="matplotlib.axis_2">
    <g id="ytick_1">
     <g id="line2d_27">
      <defs>
       <path id="m06c9761b42" d="M 0 0 
L -3.5 0 
" style="stroke: #000000; stroke-width: 0.8"/>
      </defs>
      <g>
       <use xlink:href="#m06c9761b42" x="65.46142" y="334.88673" style="stroke: #000000; stroke-width: 0.8"/>
      </g>
     </g>
     <g id="text_8">
      <!-- $\mathdefault{0.0}$ -->
      <g transform="translate(30.026669 343.188933) scale(0.24 -0.24)">
       <defs>
        <path id="CMMI12-3a" d="M 1178 307 
C 1178 492 1024 619 870 619 
C 685 619 557 466 557 313 
C 557 128 710 0 864 0 
C 1050 0 1178 153 1178 307 
z
" transform="scale(0.015625)"/>
       </defs>
       <use xlink:href="#CMR17-30" transform="scale(0.996264)"/>
       <use xlink:href="#CMMI12-3a" transform="translate(45.690477 0) scale(0.996264)"/>
       <use xlink:href="#CMR17-30" transform="translate(72.787654 0) scale(0.996264)"/>
      </g>
     </g>
    </g>
    <g id="ytick_2">
     <g id="line2d_28">
      <g>
       <use xlink:href="#m06c9761b42" x="65.46142" y="256.795792" style="stroke: #000000; stroke-width: 0.8"/>
      </g>
     </g>
     <g id="text_9">
      <!-- $\mathdefault{0.2}$ -->
      <g transform="translate(30.026669 265.097994) scale(0.24 -0.24)">
       <use xlink:href="#CMR17-30" transform="scale(0.996264)"/>
       <use xlink:href="#CMMI12-3a" transform="translate(45.690477 0) scale(0.996264)"/>
       <use xlink:href="#CMR17-32" transform="translate(72.787654 0) scale(0.996264)"/>
      </g>
     </g>
    </g>
    <g id="ytick_3">
     <g id="line2d_29">
      <g>
       <use xlink:href="#m06c9761b42" x="65.46142" y="178.704853" style="stroke: #000000; stroke-width: 0.8"/>
      </g>
     </g>
     <g id="text_10">
      <!-- $\mathdefault{0.4}$ -->
      <g transform="translate(30.026669 187.007055) scale(0.24 -0.24)">
       <use xlink:href="#CMR17-30" transform="scale(0.996264)"/>
       <use xlink:href="#CMMI12-3a" transform="translate(45.690477 0) scale(0.996264)"/>
       <use xlink:href="#CMR17-34" transform="translate(72.787654 0) scale(0.996264)"/>
      </g>
     </g>
    </g>
    <g id="ytick_4">
     <g id="line2d_30">
      <g>
       <use xlink:href="#m06c9761b42" x="65.46142" y="100.613914" style="stroke: #000000; stroke-width: 0.8"/>
      </g>
     </g>
     <g id="text_11">
      <!-- $\mathdefault{0.6}$ -->
      <g transform="translate(30.026669 108.916116) scale(0.24 -0.24)">
       <defs>
        <path id="CMR17-36" d="M 678 2176 
C 678 3690 1395 4032 1811 4032 
C 1946 4032 2272 4009 2400 3776 
C 2298 3776 2106 3776 2106 3553 
C 2106 3381 2246 3323 2336 3323 
C 2394 3323 2566 3348 2566 3560 
C 2566 3954 2246 4179 1805 4179 
C 1043 4179 243 3390 243 1984 
C 243 253 966 -128 1478 -128 
C 2099 -128 2688 427 2688 1283 
C 2688 2081 2170 2662 1517 2662 
C 1126 2662 838 2407 678 1960 
L 678 2176 
z
M 1478 25 
C 691 25 691 1200 691 1436 
C 691 1896 909 2560 1504 2560 
C 1613 2560 1926 2560 2138 2120 
C 2253 1870 2253 1609 2253 1289 
C 2253 944 2253 690 2118 434 
C 1978 171 1773 25 1478 25 
z
" transform="scale(0.015625)"/>
       </defs>
       <use xlink:href="#CMR17-30" transform="scale(0.996264)"/>
       <use xlink:href="#CMMI12-3a" transform="translate(45.690477 0) scale(0.996264)"/>
       <use xlink:href="#CMR17-36" transform="translate(72.787654 0) scale(0.996264)"/>
      </g>
     </g>
    </g>
    <g id="ytick_5">
     <g id="line2d_31">
      <g>
       <use xlink:href="#m06c9761b42" x="65.46142" y="22.522975" style="stroke: #000000; stroke-width: 0.8"/>
      </g>
     </g>
     <g id="text_12">
      <!-- $\mathdefault{0.8}$ -->
      <g transform="translate(30.026669 30.825177) scale(0.24 -0.24)">
       <defs>
        <path id="CMR17-38" d="M 1741 2264 
C 2144 2467 2554 2773 2554 3263 
C 2554 3841 1990 4179 1472 4179 
C 890 4179 378 3759 378 3180 
C 378 3021 416 2747 666 2505 
C 730 2442 998 2251 1171 2130 
C 883 1983 211 1634 211 934 
C 211 279 838 -128 1459 -128 
C 2144 -128 2720 362 2720 1010 
C 2720 1590 2330 1857 2074 2029 
L 1741 2264 
z
M 902 2822 
C 851 2854 595 3051 595 3351 
C 595 3739 998 4032 1459 4032 
C 1965 4032 2336 3676 2336 3262 
C 2336 2669 1670 2331 1638 2331 
C 1632 2331 1626 2331 1574 2370 
L 902 2822 
z
M 2080 1519 
C 2176 1449 2483 1240 2483 851 
C 2483 381 2010 25 1472 25 
C 890 25 448 438 448 940 
C 448 1443 838 1862 1280 2060 
L 2080 1519 
z
" transform="scale(0.015625)"/>
       </defs>
       <use xlink:href="#CMR17-30" transform="scale(0.996264)"/>
       <use xlink:href="#CMMI12-3a" transform="translate(45.690477 0) scale(0.996264)"/>
       <use xlink:href="#CMR17-38" transform="translate(72.787654 0) scale(0.996264)"/>
      </g>
     </g>
    </g>
    <g id="ytick_6">
     <g id="line2d_32">
      <defs>
       <path id="mf824ba0372" d="M 0 0 
L -2 0 
" style="stroke: #000000; stroke-width: 0.6"/>
      </defs>
      <g>
       <use xlink:href="#mf824ba0372" x="65.46142" y="319.268543" style="stroke: #000000; stroke-width: 0.6"/>
      </g>
     </g>
    </g>
    <g id="ytick_7">
     <g id="line2d_33">
      <g>
       <use xlink:href="#mf824ba0372" x="65.46142" y="303.650355" style="stroke: #000000; stroke-width: 0.6"/>
      </g>
     </g>
    </g>
    <g id="ytick_8">
     <g id="line2d_34">
      <g>
       <use xlink:href="#mf824ba0372" x="65.46142" y="288.032167" style="stroke: #000000; stroke-width: 0.6"/>
      </g>
     </g>
    </g>
    <g id="ytick_9">
     <g id="line2d_35">
      <g>
       <use xlink:href="#mf824ba0372" x="65.46142" y="272.413979" style="stroke: #000000; stroke-width: 0.6"/>
      </g>
     </g>
    </g>
    <g id="ytick_10">
     <g id="line2d_36">
      <g>
       <use xlink:href="#mf824ba0372" x="65.46142" y="241.177604" style="stroke: #000000; stroke-width: 0.6"/>
      </g>
     </g>
    </g>
    <g id="ytick_11">
     <g id="line2d_37">
      <g>
       <use xlink:href="#mf824ba0372" x="65.46142" y="225.559416" style="stroke: #000000; stroke-width: 0.6"/>
      </g>
     </g>
    </g>
    <g id="ytick_12">
     <g id="line2d_38">
      <g>
       <use xlink:href="#mf824ba0372" x="65.46142" y="209.941228" style="stroke: #000000; stroke-width: 0.6"/>
      </g>
     </g>
    </g>
    <g id="ytick_13">
     <g id="line2d_39">
      <g>
       <use xlink:href="#mf824ba0372" x="65.46142" y="194.32304" style="stroke: #000000; stroke-width: 0.6"/>
      </g>
     </g>
    </g>
    <g id="ytick_14">
     <g id="line2d_40">
      <g>
       <use xlink:href="#mf824ba0372" x="65.46142" y="163.086665" style="stroke: #000000; stroke-width: 0.6"/>
      </g>
     </g>
    </g>
    <g id="ytick_15">
     <g id="line2d_41">
      <g>
       <use xlink:href="#mf824ba0372" x="65.46142" y="147.468477" style="stroke: #000000; stroke-width: 0.6"/>
      </g>
     </g>
    </g>
    <g id="ytick_16">
     <g id="line2d_42">
      <g>
       <use xlink:href="#mf824ba0372" x="65.46142" y="131.850289" style="stroke: #000000; stroke-width: 0.6"/>
      </g>
     </g>
    </g>
    <g id="ytick_17">
     <g id="line2d_43">
      <g>
       <use xlink:href="#mf824ba0372" x="65.46142" y="116.232101" style="stroke: #000000; stroke-width: 0.6"/>
      </g>
     </g>
    </g>
    <g id="ytick_18">
     <g id="line2d_44">
      <g>
       <use xlink:href="#mf824ba0372" x="65.46142" y="84.995726" style="stroke: #000000; stroke-width: 0.6"/>
      </g>
     </g>
    </g>
    <g id="ytick_19">
     <g id="line2d_45">
      <g>
       <use xlink:href="#mf824ba0372" x="65.46142" y="69.377538" style="stroke: #000000; stroke-width: 0.6"/>
      </g>
     </g>
    </g>
    <g id="ytick_20">
     <g id="line2d_46">
      <g>
       <use xlink:href="#mf824ba0372" x="65.46142" y="53.75935" style="stroke: #000000; stroke-width: 0.6"/>
      </g>
     </g>
    </g>
    <g id="ytick_21">
     <g id="line2d_47">
      <g>
       <use xlink:href="#mf824ba0372" x="65.46142" y="38.141163" style="stroke: #000000; stroke-width: 0.6"/>
      </g>
     </g>
    </g>
    <g id="ytick_22">
     <g id="line2d_48">
      <g>
       <use xlink:href="#mf824ba0372" x="65.46142" y="6.904787" style="stroke: #000000; stroke-width: 0.6"/>
      </g>
     </g>
    </g>
    <g id="text_13">
     <!-- Carbon mass fraction of $\mathrm{C_2H_2}$ -->
     <g transform="translate(20.988342 323.952564) rotate(-90) scale(0.26 -0.26)">
      <defs>
       <path id="CMR17-43" d="M 3974 4289 
C 3974 4403 3968 4410 3930 4410 
C 3904 4410 3898 4403 3853 4327 
L 3571 3792 
C 3258 4187 2874 4416 2381 4416 
C 1286 4416 294 3456 294 2148 
C 294 826 1286 -128 2387 -128 
C 3366 -128 3974 730 3974 1461 
C 3974 1524 3974 1550 3917 1550 
C 3866 1550 3866 1531 3859 1474 
C 3808 585 3168 38 2477 38 
C 1824 38 781 495 781 2147 
C 781 3805 1843 4250 2464 4250 
C 3187 4250 3712 3628 3834 2745 
C 3846 2668 3846 2655 3904 2655 
C 3974 2655 3974 2668 3974 2783 
L 3974 4289 
z
" transform="scale(0.015625)"/>
       <path id="CMR17-61" d="M 2304 1653 
C 2304 2072 2304 2294 2035 2543 
C 1798 2752 1523 2816 1306 2816 
C 800 2816 435 2407 435 1971 
C 435 1728 627 1728 666 1728 
C 749 1728 896 1778 896 1954 
C 896 2112 774 2181 666 2181 
C 640 2181 608 2174 589 2168 
C 723 2592 1069 2714 1293 2714 
C 1613 2714 1965 2429 1965 1885 
L 1965 1600 
C 1587 1600 1133 1549 774 1357 
C 371 1133 256 813 256 570 
C 256 77 832 -64 1171 -64 
C 1523 -64 1850 139 1990 511 
C 2003 233 2182 -18 2464 -18 
C 2598 -18 2938 70 2938 567 
L 2938 920 
L 2822 920 
L 2822 562 
C 2822 178 2650 128 2566 128 
C 2304 128 2304 458 2304 738 
L 2304 1653 
z
M 1965 870 
C 1965 317 1568 38 1216 38 
C 896 38 646 275 646 570 
C 646 761 730 1100 1101 1305 
C 1408 1478 1760 1504 1965 1504 
L 1965 870 
z
" transform="scale(0.015625)"/>
       <path id="CMR17-72" d="M 960 1497 
C 960 2112 1222 2688 1702 2688 
C 1747 2688 1792 2682 1837 2662 
C 1837 2662 1696 2617 1696 2452 
C 1696 2298 1818 2234 1914 2234 
C 1990 2234 2131 2279 2131 2458 
C 2131 2663 1926 2790 1709 2790 
C 1222 2790 1011 2317 947 2093 
L 941 2093 
L 941 2790 
L 198 2720 
L 198 2554 
C 576 2554 634 2515 634 2208 
L 634 428 
C 634 184 608 153 198 153 
L 198 -13 
C 352 0 646 0 813 0 
C 998 0 1325 0 1498 -13 
L 1498 153 
C 1037 153 960 153 960 440 
L 960 1497 
z
" transform="scale(0.015625)"/>
       <path id="CMR17-62" d="M 960 4396 
L 198 4326 
L 198 4160 
C 576 4160 634 4122 634 3817 
L 634 -13 
L 749 -13 
L 934 441 
C 1120 141 1395 -64 1766 -64 
C 2406 -64 3053 500 3053 1370 
C 3053 2188 2477 2790 1830 2790 
C 1434 2790 1152 2579 960 2330 
L 960 4396 
z
M 973 2004 
C 973 2118 973 2138 1062 2272 
C 1312 2657 1670 2688 1792 2688 
C 1984 2688 2643 2585 2643 1376 
C 2643 108 1888 38 1734 38 
C 1536 38 1248 114 1043 486 
C 973 608 973 621 973 735 
L 973 2004 
z
" transform="scale(0.015625)"/>
       <path id="CMR17-6f" d="M 2758 1356 
C 2758 2176 2163 2816 1466 2816 
C 768 2816 173 2176 173 1356 
C 173 551 768 -64 1466 -64 
C 2163 -64 2758 551 2758 1356 
z
M 1466 51 
C 1165 51 909 230 762 480 
C 602 767 582 1126 582 1408 
C 582 1677 595 2010 762 2298 
C 890 2509 1139 2714 1466 2714 
C 1754 2714 1997 2554 2150 2330 
C 2349 2029 2349 1607 2349 1408 
C 2349 1158 2336 775 2163 467 
C 1984 173 1709 51 1466 51 
z
" transform="scale(0.015625)"/>
       <path id="CMR17-6e" d="M 2656 1933 
C 2656 2259 2592 2790 1837 2790 
C 1331 2790 1069 2400 973 2144 
L 966 2144 
L 966 2790 
L 211 2720 
L 211 2554 
C 589 2554 646 2515 646 2208 
L 646 428 
C 646 184 621 153 211 153 
L 211 -13 
C 365 0 646 0 813 0 
C 979 0 1267 0 1421 -13 
L 1421 153 
C 1011 153 986 178 986 428 
L 986 1658 
C 986 2247 1344 2688 1792 2688 
C 2266 2688 2317 2266 2317 1958 
L 2317 428 
C 2317 184 2291 153 1882 153 
L 1882 -13 
C 2035 0 2317 0 2483 0 
C 2650 0 2938 0 3091 -13 
L 3091 153 
C 2682 153 2656 178 2656 428 
L 2656 1933 
z
" transform="scale(0.015625)"/>
       <path id="CMR17-66" d="M 979 2560 
L 1709 2560 
L 1709 2725 
L 966 2725 
L 966 3494 
C 966 4022 1235 4352 1510 4352 
C 1594 4352 1690 4327 1754 4282 
C 1702 4269 1568 4225 1568 4067 
C 1568 3901 1696 3850 1786 3850 
C 1875 3850 2003 3901 2003 4067 
C 2003 4308 1773 4454 1517 4454 
C 1152 4454 653 4156 653 3481 
L 653 2725 
L 141 2725 
L 141 2560 
L 653 2560 
L 653 427 
C 653 184 627 153 218 153 
L 218 -13 
C 371 0 666 0 832 0 
C 1018 0 1344 0 1517 -13 
L 1517 153 
C 1056 153 979 153 979 439 
L 979 2560 
z
" transform="scale(0.015625)"/>
       <path id="CMR17-63" d="M 2234 2240 
C 2112 2240 1933 2240 1933 2017 
C 1933 1838 2080 1787 2163 1787 
C 2208 1787 2394 1807 2394 2024 
C 2394 2467 1958 2803 1466 2803 
C 787 2803 211 2178 211 1363 
C 211 516 813 -64 1466 -64 
C 2259 -64 2458 677 2458 748 
C 2458 774 2451 793 2406 793 
C 2362 793 2355 787 2330 703 
C 2163 180 1798 51 1523 51 
C 1114 51 621 427 621 1369 
C 621 2338 1094 2688 1472 2688 
C 1722 2688 2093 2573 2234 2240 
z
" transform="scale(0.015625)"/>
       <path id="CMR17-69" d="M 992 3909 
C 992 4049 877 4170 730 4170 
C 589 4170 467 4056 467 3909 
C 467 3769 582 3648 730 3648 
C 870 3648 992 3763 992 3909 
z
M 243 2706 
L 243 2541 
C 602 2541 653 2502 653 2197 
L 653 427 
C 653 184 627 153 218 153 
L 218 -13 
C 371 0 646 0 806 0 
C 960 0 1222 0 1370 -13 
L 1370 153 
C 992 153 979 191 979 420 
L 979 2776 
L 243 2706 
z
" transform="scale(0.015625)"/>
       <path id="CMR17-48" d="M 3590 3905 
C 3590 4192 3661 4192 4102 4192 
L 4102 4352 
C 3917 4352 3578 4352 3379 4352 
C 3181 4352 2842 4352 2656 4352 
L 2656 4192 
C 3098 4192 3168 4192 3168 3904 
L 3168 2341 
L 1261 2341 
L 1261 3904 
C 1261 4192 1331 4192 1773 4192 
L 1773 4352 
C 1587 4352 1248 4352 1050 4352 
C 851 4352 512 4352 326 4352 
L 326 4192 
C 768 4192 838 4192 838 3905 
L 838 447 
C 838 160 768 160 326 160 
L 326 0 
C 512 0 851 0 1050 0 
C 1248 0 1587 0 1773 0 
L 1773 160 
C 1331 160 1261 160 1261 446 
L 1261 2176 
L 3168 2176 
L 3168 446 
C 3168 160 3098 160 2656 160 
L 2656 0 
C 2842 0 3181 0 3379 0 
C 3578 0 3917 0 4102 0 
L 4102 160 
C 3661 160 3590 160 3590 447 
L 3590 3905 
z
" transform="scale(0.015625)"/>
      </defs>
      <use xlink:href="#CMR17-43" transform="scale(0.996264)"/>
      <use xlink:href="#CMR17-61" transform="translate(66.509881 0) scale(0.996264)"/>
      <use xlink:href="#CMR17-72" transform="translate(112.200358 0) scale(0.996264)"/>
      <use xlink:href="#CMR17-62" transform="translate(147.481125 0) scale(0.996264)"/>
      <use xlink:href="#CMR17-6f" transform="translate(200.978934 0) scale(0.996264)"/>
      <use xlink:href="#CMR17-6e" transform="translate(246.669411 0) scale(0.996264)"/>
      <use xlink:href="#CMR17-6d" transform="translate(327.640747 0) scale(0.996264)"/>
      <use xlink:href="#CMR17-61" transform="translate(404.560337 0) scale(0.996264)"/>
      <use xlink:href="#CMR17-73" transform="translate(450.250814 0) scale(0.996264)"/>
      <use xlink:href="#CMR17-73" transform="translate(486.052152 0) scale(0.996264)"/>
      <use xlink:href="#CMR17-66" transform="translate(551.929456 0) scale(0.996264)"/>
      <use xlink:href="#CMR17-72" transform="translate(579.402968 0) scale(0.996264)"/>
      <use xlink:href="#CMR17-61" transform="translate(614.683736 0) scale(0.996264)"/>
      <use xlink:href="#CMR17-63" transform="translate(660.374213 0) scale(0.996264)"/>
      <use xlink:href="#CMR17-74" transform="translate(700.859874 0) scale(0.996264)"/>
      <use xlink:href="#CMR17-69" transform="translate(736.140641 0) scale(0.996264)"/>
      <use xlink:href="#CMR17-6f" transform="translate(761.0117 0) scale(0.996264)"/>
      <use xlink:href="#CMR17-6e" transform="translate(806.702177 0) scale(0.996264)"/>
      <use xlink:href="#CMR17-6f" transform="translate(887.673513 0) scale(0.996264)"/>
      <use xlink:href="#CMR17-66" transform="translate(933.36399 0) scale(0.996264)"/>
      <use xlink:href="#CMR17-43" transform="translate(990.913469 0) scale(0.996264)"/>
      <use xlink:href="#CMR17-32" transform="translate(1057.42335 -14.943915) scale(0.697382)"/>
      <use xlink:href="#CMR17-48" transform="translate(1089.904664 0) scale(0.996264)"/>
      <use xlink:href="#CMR17-32" transform="translate(1158.977093 -14.943915) scale(0.697382)"/>
     </g>
    </g>
   </g>
   <g id="line2d_49">
    <path d="M 72.452542 334.88673 
L 72.719898 334.815528 
L 72.839025 334.568416 
L 73.010262 333.545963 
L 73.211347 330.744138 
L 73.515114 322.575457 
L 74.133752 296.910648 
L 75.067114 260.356792 
L 75.915776 236.470198 
L 76.698561 219.91315 
L 77.665416 203.933501 
L 78.771193 189.489367 
L 80.019286 176.371905 
L 81.451796 164.128249 
L 82.564528 156.115258 
L 83.810332 148.32167 
L 85.320139 140.181186 
L 87.066488 132.145982 
L 88.987282 124.619362 
L 91.19487 117.261393 
L 93.594146 110.457456 
L 96.187704 104.167093 
L 99.172425 97.971831 
L 100.925619 94.747012 
L 102.939646 91.354198 
L 104.953674 88.247659 
L 107.206666 85.063014 
L 109.698623 81.846263 
L 112.19058 78.904032 
L 114.826792 76.047564 
L 117.607257 73.280371 
L 120.387722 70.731079 
L 123.470683 68.124963 
L 126.856138 65.494277 
L 130.241594 63.072855 
L 134.008964 60.590942 
L 138.158249 58.081379 
L 142.307535 55.774505 
L 146.704572 53.521217 
L 151.349362 51.326573 
L 155.994152 49.297985 
L 161.122896 47.226219 
L 166.735594 45.135221 
L 172.348293 43.204666 
L 179.228909 41.02763 
L 187.377444 38.681255 
L 195.525979 36.548844 
L 204.185485 34.482131 
L 213.355962 32.484864 
L 222.526439 30.656514 
L 232.719352 28.794674 
L 243.934702 26.924114 
L 255.150052 25.213769 
L 267.67405 23.466397 
L 281.506698 21.707405 
L 295.339346 20.102239 
L 309.246792 18.621914 
L 337.21128 15.982519 
L 365.175767 13.70732 
L 393.140255 11.719781 
L 421.104743 9.964352 
L 433 9.280311 
L 433 9.280311 
" clip-path="url(#p90b6b23c12)" style="fill: none; stroke: #fbf700; stroke-width: 2; stroke-linecap: square"/>
   </g>
   <g id="line2d_50">
    <path d="M 72.452542 334.88673 
L 72.699095 334.808759 
L 72.830273 334.458013 
L 72.980449 333.321821 
L 73.186696 329.708646 
L 73.462769 320.408014 
L 73.99751 292.779734 
L 74.851797 250.655082 
L 75.577575 225.626299 
L 76.325546 207.061152 
L 77.099702 192.557401 
L 78.122369 177.860065 
L 79.106649 166.745627 
L 80.244195 156.310379 
L 81.574467 146.338995 
L 83.151935 136.663138 
L 84.368066 130.35438 
L 85.766416 124.03304 
L 87.260232 118.145794 
L 88.858225 112.629639 
L 90.825149 106.714729 
L 93.032084 100.979283 
L 95.590123 95.25586 
L 98.339027 89.962626 
L 101.28837 85.050529 
L 104.648168 80.208883 
L 106.50465 77.813518 
L 108.537717 75.383043 
L 110.570783 73.129604 
L 112.926732 70.712205 
L 115.605563 68.183876 
L 118.284393 65.858954 
L 121.104675 63.601914 
L 124.066408 61.414915 
L 127.028141 59.391859 
L 130.279299 57.33616 
L 133.819884 55.269205 
L 137.360469 53.358715 
L 141.265501 51.410043 
L 145.534979 49.445517 
L 149.804457 47.632244 
L 154.761001 45.692166 
L 160.404611 43.669954 
L 166.048221 41.819144 
L 171.989387 40.030415 
L 178.22811 38.304708 
L 184.466833 36.714859 
L 191.332389 35.101928 
L 198.82478 33.483891 
L 206.31717 31.994887 
L 214.583553 30.482219 
L 223.623928 28.963732 
L 232.664303 27.568459 
L 242.627833 26.154597 
L 253.514518 24.738587 
L 264.401202 23.439268 
L 276.835667 22.078768 
L 290.81791 20.68462 
L 318.782398 18.249827 
L 346.746886 16.188039 
L 374.711374 14.414314 
L 402.675861 12.868608 
L 430.640349 11.507085 
L 430.640349 11.507085 
" clip-path="url(#p90b6b23c12)" style="fill: none; stroke: #000000; stroke-width: 2; stroke-linecap: square"/>
   </g>
   <g id="line2d_51">
    <path d="M 72.452542 334.88673 
L 72.61619 334.820664 
L 72.723539 334.404502 
L 72.860818 332.725128 
L 73.071547 326.42401 
L 73.40638 307.775374 
L 74.572328 236.278964 
L 75.25129 210.369489 
L 75.967919 191.521919 
L 76.753714 176.831971 
L 77.514646 166.26221 
L 78.418918 156.648574 
L 79.358722 148.871942 
L 80.521062 141.292879 
L 81.455593 136.320435 
L 82.473364 131.714537 
L 84.104211 125.59708 
L 85.368801 121.631066 
L 86.827076 117.674635 
L 88.479036 113.802317 
L 90.464839 109.798289 
L 92.64562 106.022764 
L 95.021377 102.473918 
L 97.631185 99.097216 
L 100.494225 95.880079 
L 103.610498 92.830456 
L 107.37988 89.631648 
L 109.264571 88.195709 
L 111.755087 86.438242 
L 116.73612 83.322035 
L 119.773386 81.637272 
L 125.84792 78.655195 
L 129.533463 77.053383 
L 136.90455 74.221225 
L 145.073648 71.540025 
L 154.068171 69.012066 
L 163.88812 66.641612 
L 175.792921 64.185469 
L 181.745321 63.095191 
L 189.631258 61.76819 
L 205.403133 59.446114 
L 222.921255 57.274572 
L 242.211303 55.259048 
L 263.273276 53.401056 
L 288.845821 51.510714 
L 315.614337 49.859118 
L 343.578824 48.407316 
L 371.543312 47.173688 
L 399.5078 46.113612 
L 433 45.027465 
L 433 45.027465 
" clip-path="url(#p90b6b23c12)" style="fill: none; stroke: #08ff00; stroke-width: 2; stroke-linecap: square"/>
   </g>
   <g id="line2d_52">
    <path d="M 72.452542 334.88673 
L 72.728366 334.804714 
L 72.852003 334.526406 
L 73.001448 333.673209 
L 73.24451 330.50219 
L 73.589411 321.943236 
L 74.203721 299.330774 
L 75.501259 250.450964 
L 76.301386 227.833932 
L 77.11909 210.206917 
L 77.859767 197.81371 
L 78.683793 186.922118 
L 79.770421 175.866143 
L 80.982377 166.574656 
L 82.286995 158.971785 
L 83.271743 154.384767 
L 84.393082 150.040023 
L 85.819469 145.518673 
L 87.340433 141.604084 
L 88.957995 138.184668 
L 90.770772 135.016001 
L 92.686572 132.225646 
L 94.705647 129.74328 
L 96.931527 127.41294 
L 99.778503 124.891184 
L 102.956162 122.52096 
L 106.504779 120.275545 
L 110.470691 118.132201 
L 114.748276 116.140726 
L 119.543586 114.203993 
L 124.593308 112.421716 
L 130.088904 110.71349 
L 136.667712 108.915169 
L 144.230783 107.105842 
L 152.515478 105.370012 
L 161.980778 103.632393 
L 172.270313 101.976814 
L 183.439202 100.397365 
L 196.42192 98.787662 
L 212.783916 97.032277 
L 231.141354 95.346635 
L 252.105847 93.706955 
L 274.416008 92.223416 
L 298.201985 90.875782 
L 325.069741 89.584019 
L 352.760046 88.456935 
L 394.706778 87.057039 
L 429.662387 86.110965 
L 429.662387 86.110965 
" clip-path="url(#p90b6b23c12)" style="fill: none; stroke: #00fff3; stroke-width: 2; stroke-linecap: square"/>
   </g>
   <g id="line2d_53">
    <path d="M 72.452542 334.88673 
L 72.725071 334.785683 
L 72.855915 334.359822 
L 73.023722 332.710496 
L 73.257455 327.047521 
L 73.58993 311.906092 
L 75.045224 236.221681 
L 75.676762 216.144921 
L 76.304085 201.727484 
L 77.147617 187.866731 
L 77.885348 179.054777 
L 78.736212 171.32715 
L 79.739762 164.397063 
L 80.578231 159.815416 
L 81.51148 155.603202 
L 82.577199 151.604103 
L 83.712981 148.018531 
L 84.92187 144.752409 
L 86.280016 141.575951 
L 87.714659 138.640619 
L 89.228807 135.89676 
L 90.904972 133.187306 
L 92.784061 130.471817 
L 94.925478 127.70629 
L 97.650954 124.587557 
L 100.807089 121.417901 
L 104.280608 118.3596 
L 108.275621 115.279802 
L 112.939065 112.148523 
L 118.103103 109.13539 
L 124.100487 106.099832 
L 130.610688 103.241128 
L 137.622704 100.555776 
L 145.627343 97.87807 
L 150.305905 96.467862 
L 161.015512 93.583173 
L 166.979171 92.148424 
L 180.124201 89.327191 
L 194.298656 86.70017 
L 209.560136 84.237579 
L 227.053263 81.772136 
L 247.444325 79.267096 
L 270.453227 76.804503 
L 298.417715 74.205463 
L 326.382202 71.936578 
L 354.34669 69.924044 
L 382.311178 68.116387 
L 424.257909 65.710134 
L 431.249031 65.339208 
L 431.249031 65.339208 
" clip-path="url(#p90b6b23c12)" style="fill: none; stroke: #0010ff; stroke-width: 2; stroke-linecap: square"/>
   </g>
   <g id="line2d_54">
    <path d="M 72.452542 334.88673 
L 72.663059 334.817784 
L 72.768767 334.55444 
L 72.945211 333.182776 
L 73.139976 329.593527 
L 73.442996 319.248699 
L 75.485981 235.259006 
L 76.175881 219.403389 
L 76.898729 206.922043 
L 77.893741 194.002025 
L 78.98527 183.268534 
L 80.323342 173.036053 
L 81.387606 166.376809 
L 82.552549 160.121513 
L 83.818171 154.230437 
L 85.71803 146.681089 
L 87.503729 140.631285 
L 89.500176 134.759414 
L 91.707371 129.107825 
L 94.426134 123.076246 
L 97.435451 117.317972 
L 100.735321 111.853812 
L 102.796731 108.801775 
L 104.858141 105.982006 
L 106.919551 103.364704 
L 109.476234 100.363423 
L 112.032916 97.597862 
L 114.589599 95.037063 
L 117.764403 92.10439 
L 120.939208 89.409073 
L 124.114013 86.919279 
L 128.0522 84.077849 
L 131.990387 81.472847 
L 135.928574 79.072093 
L 140.853586 76.317779 
L 145.778599 73.801077 
L 150.703611 71.489094 
L 156.870741 68.84248 
L 163.037871 66.433474 
L 169.205001 64.228702 
L 176.919995 61.717514 
L 184.634988 59.44186 
L 192.349982 57.368202 
L 201.8969 55.041854 
L 211.443818 52.942653 
L 220.990737 51.03796 
L 232.695332 48.929964 
L 244.399928 47.036011 
L 256.104524 45.325023 
L 270.086767 43.486151 
L 284.069011 41.838155 
L 298.051255 40.353321 
L 312.033499 39.009132 
L 339.997987 36.671719 
L 367.962474 34.71156 
L 395.926962 33.047136 
L 430.882572 31.292943 
L 430.882572 31.292943 
" clip-path="url(#p90b6b23c12)" style="fill: none; stroke: #eb00ff; stroke-width: 2; stroke-linecap: square"/>
   </g>
   <g id="line2d_55">
    <path d="M 72.452542 334.88673 
L 72.533123 334.779618 
L 72.602744 333.68029 
L 72.724721 326.530245 
L 74.043761 217.612396 
L 74.683423 189.954802 
L 75.409818 167.333457 
L 76.282131 147.467819 
L 77.070532 133.874003 
L 78.023944 121.09437 
L 79.208009 108.994894 
L 80.142191 101.495864 
L 81.242845 94.309265 
L 82.436426 88.003631 
L 83.716453 82.506292 
L 85.162894 77.45195 
L 86.697017 73.077288 
L 88.40387 69.081848 
L 90.541226 65.008966 
L 92.921732 61.329193 
L 95.463852 58.090889 
L 98.24766 55.116496 
L 101.332715 52.31396 
L 104.640339 49.724514 
L 108.31442 47.219401 
L 112.146301 44.923248 
L 116.186619 42.77683 
L 120.694449 40.650044 
L 125.856927 38.498055 
L 131.518102 36.42464 
L 138.020721 34.34749 
L 145.122668 32.384901 
L 152.809342 30.555993 
L 161.650869 28.761646 
L 167.105534 27.792356 
L 180.082667 25.828829 
L 187.420456 24.895282 
L 203.79448 23.169175 
L 213.005651 22.372907 
L 233.476309 20.942939 
L 256.015223 19.772547 
L 279.885272 18.857296 
L 305.680466 18.132658 
L 333.10263 17.576443 
L 375.049362 17.018234 
L 416.996093 16.697356 
L 430.978337 16.628233 
L 430.978337 16.628233 
" clip-path="url(#p90b6b23c12)" style="fill: none; stroke: #ff0018; stroke-width: 2; stroke-linecap: square"/>
   </g>
   <g id="patch_3">
    <path d="M 65.46142 334.88673 
L 65.46142 3.00024 
" style="fill: none; stroke: #000000; stroke-width: 0.8; stroke-linejoin: miter; stroke-linecap: square"/>
   </g>
   <g id="patch_4">
    <path d="M 428.99976 334.88673 
L 428.99976 3.00024 
" style="fill: none; stroke: #000000; stroke-width: 0.8; stroke-linejoin: miter; stroke-linecap: square"/>
   </g>
   <g id="patch_5">
    <path d="M 65.46142 334.88673 
L 428.99976 334.88673 
" style="fill: none; stroke: #000000; stroke-width: 0.8; stroke-linejoin: miter; stroke-linecap: square"/>
   </g>
   <g id="patch_6">
    <path d="M 65.46142 3.00024 
L 428.99976 3.00024 
" style="fill: none; stroke: #000000; stroke-width: 0.8; stroke-linejoin: miter; stroke-linecap: square"/>
   </g>
   <g id="text_14">
    <!-- (b) -->
    <g transform="translate(356.292092 185.53781) scale(0.32 -0.32)">
     <defs>
      <path id="CMR17-28" d="M 1958 -1561 
C 1958 -1555 1958 -1542 1939 -1523 
C 1645 -1224 858 -407 858 1581 
C 858 3569 1632 4379 1946 4697 
C 1946 4704 1958 4717 1958 4736 
C 1958 4755 1939 4768 1914 4768 
C 1843 4768 1299 4296 986 3594 
C 666 2887 576 2199 576 1588 
C 576 1128 621 351 1005 -471 
C 1312 -1135 1837 -1600 1914 -1600 
C 1946 -1600 1958 -1587 1958 -1561 
z
" transform="scale(0.015625)"/>
      <path id="CMR17-29" d="M 1683 1581 
C 1683 2040 1638 2817 1254 3639 
C 947 4303 422 4768 346 4768 
C 326 4768 301 4761 301 4729 
C 301 4717 307 4710 314 4697 
C 621 4378 1402 3568 1402 1584 
C 1402 -407 627 -1217 314 -1537 
C 307 -1549 301 -1556 301 -1568 
C 301 -1600 326 -1600 346 -1600 
C 416 -1600 960 -1128 1274 -426 
C 1594 281 1683 969 1683 1581 
z
" transform="scale(0.015625)"/>
     </defs>
     <use xlink:href="#CMR17-28" transform="scale(0.996264)"/>
     <use xlink:href="#CMR17-62" transform="translate(35.280768 0) scale(0.996264)"/>
     <use xlink:href="#CMR17-29" transform="translate(86.176138 0) scale(0.996264)"/>
    </g>
   </g>
  </g>
  <g id="axes_2">
   <g id="patch_7">
    <path d="M 146.88 300.96 
L 298.08 300.96 
L 298.08 162.36 
L 146.88 162.36 
z
" style="fill: #ffffff"/>
   </g>
   <g id="matplotlib.axis_3">
    <g id="xtick_27">
     <g id="line2d_56">
      <g>
       <use xlink:href="#mdafa2510e5" x="146.88" y="300.96" style="stroke: #000000; stroke-width: 0.8"/>
      </g>
     </g>
     <g id="text_15">
      <!-- $\mathdefault{10^{-3}}$ -->
      <g transform="translate(133.640601 317.645876) scale(0.14 -0.14)">
       <defs>
        <path id="CMSY10-0" d="M 4218 1472 
C 4326 1472 4442 1472 4442 1600 
C 4442 1728 4326 1728 4218 1728 
L 755 1728 
C 646 1728 531 1728 531 1600 
C 531 1472 646 1472 755 1472 
L 4218 1472 
z
" transform="scale(0.015625)"/>
       </defs>
       <use xlink:href="#CMR17-31" transform="scale(0.996264)"/>
       <use xlink:href="#CMR17-30" transform="translate(45.690477 0) scale(0.996264)"/>
       <use xlink:href="#CMSY10-0" transform="translate(91.380954 36.153639) scale(0.697382)"/>
       <use xlink:href="#CMR17-33" transform="translate(145.621947 36.153639) scale(0.697382)"/>
      </g>
     </g>
    </g>
    <g id="xtick_28">
     <g id="line2d_57">
      <g>
       <use xlink:href="#mdafa2510e5" x="197.28" y="300.96" style="stroke: #000000; stroke-width: 0.8"/>
      </g>
     </g>
     <g id="text_16">
      <!-- $\mathdefault{10^{-2}}$ -->
      <g transform="translate(184.040601 317.645876) scale(0.14 -0.14)">
       <use xlink:href="#CMR17-31" transform="scale(0.996264)"/>
       <use xlink:href="#CMR17-30" transform="translate(45.690477 0) scale(0.996264)"/>
       <use xlink:href="#CMSY10-0" transform="translate(91.380954 36.153639) scale(0.697382)"/>
       <use xlink:href="#CMR17-32" transform="translate(145.621947 36.153639) scale(0.697382)"/>
      </g>
     </g>
    </g>
    <g id="xtick_29">
     <g id="line2d_58">
      <g>
       <use xlink:href="#mdafa2510e5" x="247.68" y="300.96" style="stroke: #000000; stroke-width: 0.8"/>
      </g>
     </g>
     <g id="text_17">
      <!-- $\mathdefault{10^{-1}}$ -->
      <g transform="translate(234.440601 317.645876) scale(0.14 -0.14)">
       <use xlink:href="#CMR17-31" transform="scale(0.996264)"/>
       <use xlink:href="#CMR17-30" transform="translate(45.690477 0) scale(0.996264)"/>
       <use xlink:href="#CMSY10-0" transform="translate(91.380954 36.153639) scale(0.697382)"/>
       <use xlink:href="#CMR17-31" transform="translate(145.621947 36.153639) scale(0.697382)"/>
      </g>
     </g>
    </g>
    <g id="xtick_30">
     <g id="line2d_59">
      <g>
       <use xlink:href="#mdafa2510e5" x="298.08" y="300.96" style="stroke: #000000; stroke-width: 0.8"/>
      </g>
     </g>
     <g id="text_18">
      <!-- $\mathdefault{10^{0}}$ -->
      <g transform="translate(288.742898 317.645876) scale(0.14 -0.14)">
       <use xlink:href="#CMR17-31" transform="scale(0.996264)"/>
       <use xlink:href="#CMR17-30" transform="translate(45.690477 0) scale(0.996264)"/>
       <use xlink:href="#CMR17-30" transform="translate(91.380954 36.153639) scale(0.697382)"/>
      </g>
     </g>
    </g>
    <g id="xtick_31">
     <g id="line2d_60">
      <g>
       <use xlink:href="#m1e75e00d24" x="162.051912" y="300.96" style="stroke: #000000; stroke-width: 0.6"/>
      </g>
     </g>
    </g>
    <g id="xtick_32">
     <g id="line2d_61">
      <g>
       <use xlink:href="#m1e75e00d24" x="170.926911" y="300.96" style="stroke: #000000; stroke-width: 0.6"/>
      </g>
     </g>
    </g>
    <g id="xtick_33">
     <g id="line2d_62">
      <g>
       <use xlink:href="#m1e75e00d24" x="177.223824" y="300.96" style="stroke: #000000; stroke-width: 0.6"/>
      </g>
     </g>
    </g>
    <g id="xtick_34">
     <g id="line2d_63">
      <g>
       <use xlink:href="#m1e75e00d24" x="182.108088" y="300.96" style="stroke: #000000; stroke-width: 0.6"/>
      </g>
     </g>
    </g>
    <g id="xtick_35">
     <g id="line2d_64">
      <g>
       <use xlink:href="#m1e75e00d24" x="186.098823" y="300.96" style="stroke: #000000; stroke-width: 0.6"/>
      </g>
     </g>
    </g>
    <g id="xtick_36">
     <g id="line2d_65">
      <g>
       <use xlink:href="#m1e75e00d24" x="189.472941" y="300.96" style="stroke: #000000; stroke-width: 0.6"/>
      </g>
     </g>
    </g>
    <g id="xtick_37">
     <g id="line2d_66">
      <g>
       <use xlink:href="#m1e75e00d24" x="192.395735" y="300.96" style="stroke: #000000; stroke-width: 0.6"/>
      </g>
     </g>
    </g>
    <g id="xtick_38">
     <g id="line2d_67">
      <g>
       <use xlink:href="#m1e75e00d24" x="194.973822" y="300.96" style="stroke: #000000; stroke-width: 0.6"/>
      </g>
     </g>
    </g>
    <g id="xtick_39">
     <g id="line2d_68">
      <g>
       <use xlink:href="#m1e75e00d24" x="212.451912" y="300.96" style="stroke: #000000; stroke-width: 0.6"/>
      </g>
     </g>
    </g>
    <g id="xtick_40">
     <g id="line2d_69">
      <g>
       <use xlink:href="#m1e75e00d24" x="221.326911" y="300.96" style="stroke: #000000; stroke-width: 0.6"/>
      </g>
     </g>
    </g>
    <g id="xtick_41">
     <g id="line2d_70">
      <g>
       <use xlink:href="#m1e75e00d24" x="227.623824" y="300.96" style="stroke: #000000; stroke-width: 0.6"/>
      </g>
     </g>
    </g>
    <g id="xtick_42">
     <g id="line2d_71">
      <g>
       <use xlink:href="#m1e75e00d24" x="232.508088" y="300.96" style="stroke: #000000; stroke-width: 0.6"/>
      </g>
     </g>
    </g>
    <g id="xtick_43">
     <g id="line2d_72">
      <g>
       <use xlink:href="#m1e75e00d24" x="236.498823" y="300.96" style="stroke: #000000; stroke-width: 0.6"/>
      </g>
     </g>
    </g>
    <g id="xtick_44">
     <g id="line2d_73">
      <g>
       <use xlink:href="#m1e75e00d24" x="239.872941" y="300.96" style="stroke: #000000; stroke-width: 0.6"/>
      </g>
     </g>
    </g>
    <g id="xtick_45">
     <g id="line2d_74">
      <g>
       <use xlink:href="#m1e75e00d24" x="242.795735" y="300.96" style="stroke: #000000; stroke-width: 0.6"/>
      </g>
     </g>
    </g>
    <g id="xtick_46">
     <g id="line2d_75">
      <g>
       <use xlink:href="#m1e75e00d24" x="245.373822" y="300.96" style="stroke: #000000; stroke-width: 0.6"/>
      </g>
     </g>
    </g>
    <g id="xtick_47">
     <g id="line2d_76">
      <g>
       <use xlink:href="#m1e75e00d24" x="262.851912" y="300.96" style="stroke: #000000; stroke-width: 0.6"/>
      </g>
     </g>
    </g>
    <g id="xtick_48">
     <g id="line2d_77">
      <g>
       <use xlink:href="#m1e75e00d24" x="271.726911" y="300.96" style="stroke: #000000; stroke-width: 0.6"/>
      </g>
     </g>
    </g>
    <g id="xtick_49">
     <g id="line2d_78">
      <g>
       <use xlink:href="#m1e75e00d24" x="278.023824" y="300.96" style="stroke: #000000; stroke-width: 0.6"/>
      </g>
     </g>
    </g>
    <g id="xtick_50">
     <g id="line2d_79">
      <g>
       <use xlink:href="#m1e75e00d24" x="282.908088" y="300.96" style="stroke: #000000; stroke-width: 0.6"/>
      </g>
     </g>
    </g>
    <g id="xtick_51">
     <g id="line2d_80">
      <g>
       <use xlink:href="#m1e75e00d24" x="286.898823" y="300.96" style="stroke: #000000; stroke-width: 0.6"/>
      </g>
     </g>
    </g>
    <g id="xtick_52">
     <g id="line2d_81">
      <g>
       <use xlink:href="#m1e75e00d24" x="290.272941" y="300.96" style="stroke: #000000; stroke-width: 0.6"/>
      </g>
     </g>
    </g>
    <g id="xtick_53">
     <g id="line2d_82">
      <g>
       <use xlink:href="#m1e75e00d24" x="293.195735" y="300.96" style="stroke: #000000; stroke-width: 0.6"/>
      </g>
     </g>
    </g>
    <g id="xtick_54">
     <g id="line2d_83">
      <g>
       <use xlink:href="#m1e75e00d24" x="295.773822" y="300.96" style="stroke: #000000; stroke-width: 0.6"/>
      </g>
     </g>
    </g>
   </g>
   <g id="matplotlib.axis_4">
    <g id="ytick_23">
     <g id="line2d_84">
      <g>
       <use xlink:href="#m06c9761b42" x="146.88" y="300.96" style="stroke: #000000; stroke-width: 0.8"/>
      </g>
     </g>
     <g id="text_19">
      <!-- $\mathdefault{0.0}$ -->
      <g transform="translate(122.429418 305.802938) scale(0.14 -0.14)">
       <use xlink:href="#CMR17-30" transform="scale(0.996264)"/>
       <use xlink:href="#CMMI12-3a" transform="translate(45.690477 0) scale(0.996264)"/>
       <use xlink:href="#CMR17-30" transform="translate(72.787654 0) scale(0.996264)"/>
      </g>
     </g>
    </g>
    <g id="ytick_24">
     <g id="line2d_85">
      <g>
       <use xlink:href="#m06c9761b42" x="146.88" y="261.36" style="stroke: #000000; stroke-width: 0.8"/>
      </g>
     </g>
     <g id="text_20">
      <!-- $\mathdefault{0.2}$ -->
      <g transform="translate(122.429418 266.202938) scale(0.14 -0.14)">
       <use xlink:href="#CMR17-30" transform="scale(0.996264)"/>
       <use xlink:href="#CMMI12-3a" transform="translate(45.690477 0) scale(0.996264)"/>
       <use xlink:href="#CMR17-32" transform="translate(72.787654 0) scale(0.996264)"/>
      </g>
     </g>
    </g>
    <g id="ytick_25">
     <g id="line2d_86">
      <g>
       <use xlink:href="#m06c9761b42" x="146.88" y="221.76" style="stroke: #000000; stroke-width: 0.8"/>
      </g>
     </g>
     <g id="text_21">
      <!-- $\mathdefault{0.4}$ -->
      <g transform="translate(122.429418 226.602938) scale(0.14 -0.14)">
       <use xlink:href="#CMR17-30" transform="scale(0.996264)"/>
       <use xlink:href="#CMMI12-3a" transform="translate(45.690477 0) scale(0.996264)"/>
       <use xlink:href="#CMR17-34" transform="translate(72.787654 0) scale(0.996264)"/>
      </g>
     </g>
    </g>
    <g id="ytick_26">
     <g id="line2d_87">
      <g>
       <use xlink:href="#m06c9761b42" x="146.88" y="182.16" style="stroke: #000000; stroke-width: 0.8"/>
      </g>
     </g>
     <g id="text_22">
      <!-- $\mathdefault{0.6}$ -->
      <g transform="translate(122.429418 187.002938) scale(0.14 -0.14)">
       <use xlink:href="#CMR17-30" transform="scale(0.996264)"/>
       <use xlink:href="#CMMI12-3a" transform="translate(45.690477 0) scale(0.996264)"/>
       <use xlink:href="#CMR17-36" transform="translate(72.787654 0) scale(0.996264)"/>
      </g>
     </g>
    </g>
    <g id="ytick_27">
     <g id="line2d_88">
      <g>
       <use xlink:href="#mf824ba0372" x="146.88" y="293.04" style="stroke: #000000; stroke-width: 0.6"/>
      </g>
     </g>
    </g>
    <g id="ytick_28">
     <g id="line2d_89">
      <g>
       <use xlink:href="#mf824ba0372" x="146.88" y="285.12" style="stroke: #000000; stroke-width: 0.6"/>
      </g>
     </g>
    </g>
    <g id="ytick_29">
     <g id="line2d_90">
      <g>
       <use xlink:href="#mf824ba0372" x="146.88" y="277.2" style="stroke: #000000; stroke-width: 0.6"/>
      </g>
     </g>
    </g>
    <g id="ytick_30">
     <g id="line2d_91">
      <g>
       <use xlink:href="#mf824ba0372" x="146.88" y="269.28" style="stroke: #000000; stroke-width: 0.6"/>
      </g>
     </g>
    </g>
    <g id="ytick_31">
     <g id="line2d_92">
      <g>
       <use xlink:href="#mf824ba0372" x="146.88" y="253.44" style="stroke: #000000; stroke-width: 0.6"/>
      </g>
     </g>
    </g>
    <g id="ytick_32">
     <g id="line2d_93">
      <g>
       <use xlink:href="#mf824ba0372" x="146.88" y="245.52" style="stroke: #000000; stroke-width: 0.6"/>
      </g>
     </g>
    </g>
    <g id="ytick_33">
     <g id="line2d_94">
      <g>
       <use xlink:href="#mf824ba0372" x="146.88" y="237.6" style="stroke: #000000; stroke-width: 0.6"/>
      </g>
     </g>
    </g>
    <g id="ytick_34">
     <g id="line2d_95">
      <g>
       <use xlink:href="#mf824ba0372" x="146.88" y="229.68" style="stroke: #000000; stroke-width: 0.6"/>
      </g>
     </g>
    </g>
    <g id="ytick_35">
     <g id="line2d_96">
      <g>
       <use xlink:href="#mf824ba0372" x="146.88" y="213.84" style="stroke: #000000; stroke-width: 0.6"/>
      </g>
     </g>
    </g>
    <g id="ytick_36">
     <g id="line2d_97">
      <g>
       <use xlink:href="#mf824ba0372" x="146.88" y="205.92" style="stroke: #000000; stroke-width: 0.6"/>
      </g>
     </g>
    </g>
    <g id="ytick_37">
     <g id="line2d_98">
      <g>
       <use xlink:href="#mf824ba0372" x="146.88" y="198" style="stroke: #000000; stroke-width: 0.6"/>
      </g>
     </g>
    </g>
    <g id="ytick_38">
     <g id="line2d_99">
      <g>
       <use xlink:href="#mf824ba0372" x="146.88" y="190.08" style="stroke: #000000; stroke-width: 0.6"/>
      </g>
     </g>
    </g>
    <g id="ytick_39">
     <g id="line2d_100">
      <g>
       <use xlink:href="#mf824ba0372" x="146.88" y="174.24" style="stroke: #000000; stroke-width: 0.6"/>
      </g>
     </g>
    </g>
    <g id="ytick_40">
     <g id="line2d_101">
      <g>
       <use xlink:href="#mf824ba0372" x="146.88" y="166.32" style="stroke: #000000; stroke-width: 0.6"/>
      </g>
     </g>
    </g>
   </g>
   <g id="line2d_102">
    <path d="M -1 300.96 
L 181.819388 300.857863 
L 188.621367 300.607141 
L 192.334203 300.280095 
L 195.749778 299.740973 
L 199.073409 298.859287 
L 200.620347 298.280285 
L 202.146978 297.576651 
L 203.650439 296.735318 
L 205.057235 295.797601 
L 206.443308 294.71694 
L 207.807183 293.490214 
L 210.353739 290.739895 
L 212.76924 287.568303 
L 215.27909 283.72595 
L 217.723334 279.526967 
L 221.354109 272.695944 
L 236.765127 242.656772 
L 242.58241 232.218832 
L 248.158103 222.669234 
L 254.468201 212.347869 
L 259.710171 204.208485 
L 265.145007 196.260506 
L 269.265144 190.601955 
L 273.141124 185.575729 
L 277.027299 180.820197 
L 281.314521 175.889059 
L 285.714841 171.150896 
L 289.819817 167.006382 
L 293.911854 163.122888 
L 298.062389 159.421887 
L 303.282871 155.087042 
L 307.349985 151.943731 
L 311.947435 148.624501 
L 316.238955 145.740385 
L 320.557432 143.038411 
L 326.038893 139.886484 
L 331.421386 137.081689 
L 334.112078 135.783772 
L 334.112078 135.783772 
" clip-path="url(#pd412948c6e)" style="fill: none; stroke: #fbf700; stroke-width: 2; stroke-linecap: square"/>
   </g>
   <g id="line2d_103">
    <path d="M -1 300.96 
L 179.387303 300.862478 
L 185.779661 300.650176 
L 189.466519 300.365587 
L 192.700177 299.922078 
L 195.572451 299.282059 
L 198.350503 298.334188 
L 200.841584 297.102992 
L 202.956796 295.692661 
L 204.100762 294.76518 
L 206.50817 292.383959 
L 208.71378 289.644519 
L 210.743362 286.631379 
L 212.64134 283.397985 
L 214.636377 279.607497 
L 217.635092 273.311587 
L 222.336987 262.667823 
L 228.075318 249.775886 
L 231.941652 241.670968 
L 235.685829 234.368397 
L 239.801277 226.918586 
L 244.296216 219.365778 
L 248.900587 212.142151 
L 253.503197 205.347238 
L 258.204433 198.786899 
L 262.94747 192.52762 
L 267.547325 186.792878 
L 272.631765 180.838722 
L 277.491619 175.526619 
L 282.334895 170.597894 
L 287.519402 165.714693 
L 292.659562 161.256251 
L 297.733417 157.208664 
L 303.104839 153.283656 
L 308.398219 149.75672 
L 313.610355 146.596141 
L 318.909331 143.683539 
L 324.368203 140.983419 
L 330.125939 138.448089 
L 333.842022 136.97383 
L 333.842022 136.97383 
" clip-path="url(#pd412948c6e)" style="fill: none; stroke: #000000; stroke-width: 2; stroke-linecap: square"/>
   </g>
   <g id="line2d_104">
    <path d="M -1 300.96 
L 171.13568 300.865961 
L 178.807152 300.598421 
L 183.759922 300.133228 
L 187.124674 299.543981 
L 190.256452 298.671446 
L 193.18456 297.449573 
L 194.616214 296.668545 
L 197.225942 294.865509 
L 199.762003 292.565987 
L 202.029833 289.990889 
L 204.080349 287.211802 
L 206.391325 283.561904 
L 208.488468 279.798643 
L 211.462785 273.827198 
L 214.521224 267.117048 
L 225.662912 241.932028 
L 228.567979 235.952557 
L 231.549007 230.230429 
L 234.64889 224.740976 
L 238.155098 219.085401 
L 241.745817 213.860713 
L 245.346238 209.136789 
L 248.376705 205.509031 
L 251.942522 201.587842 
L 255.560365 197.93116 
L 260.017499 193.787327 
L 264.680494 189.793817 
L 269.570007 185.909961 
L 274.562028 182.216609 
L 280.390713 178.213 
L 285.473639 174.971502 
L 290.899137 171.751109 
L 296.300355 168.776239 
L 302.746927 165.511034 
L 307.859847 163.134215 
L 313.545369 160.709555 
L 318.815777 158.669586 
L 324.067701 156.841213 
L 329.895309 155.060403 
L 334.074406 153.949663 
L 334.074406 153.949663 
" clip-path="url(#pd412948c6e)" style="fill: none; stroke: #08ff00; stroke-width: 2; stroke-linecap: square"/>
   </g>
   <g id="line2d_105">
    <path d="M -1 300.96 
L 180.52888 300.879167 
L 186.974045 300.701689 
L 191.98553 300.344622 
L 195.39708 299.87724 
L 198.52034 299.18641 
L 201.404162 298.228908 
L 203.945551 297.049518 
L 205.362093 296.227761 
L 206.854447 295.217711 
L 208.941129 293.531831 
L 210.995382 291.531323 
L 213.009412 289.216467 
L 214.730696 286.948043 
L 216.480136 284.364439 
L 218.917289 280.307992 
L 221.297193 275.872055 
L 223.722178 270.944328 
L 227.454179 262.796859 
L 236.645415 242.281797 
L 240.09793 235.20449 
L 243.074589 229.580521 
L 246.293148 224.047882 
L 248.679853 220.320487 
L 250.958213 217.054815 
L 254.147537 212.941199 
L 257.238275 209.427258 
L 259.396845 207.224034 
L 261.866829 204.931252 
L 265.338122 202.072662 
L 268.764166 199.605336 
L 271.971558 197.556764 
L 276.259586 195.128913 
L 281.163682 192.676874 
L 287.080184 190.033663 
L 293.853944 187.281506 
L 302.304849 184.116549 
L 310.617884 181.233906 
L 318.738372 178.657474 
L 325.002874 176.88043 
L 330.557115 175.503789 
L 333.782178 174.805539 
L 333.782178 174.805539 
" clip-path="url(#pd412948c6e)" style="fill: none; stroke: #00fff3; stroke-width: 2; stroke-linecap: square"/>
   </g>
   <g id="line2d_106">
    <path d="M -1 300.96 
L 178.942417 300.88032 
L 185.242473 300.692804 
L 189.230503 300.393039 
L 192.856207 299.856429 
L 194.605374 299.451743 
L 196.225044 298.959012 
L 197.709409 298.383966 
L 199.077237 297.728845 
L 200.364592 296.984729 
L 201.68136 296.078208 
L 203.018335 294.989946 
L 204.278325 293.795015 
L 205.527186 292.436964 
L 207.932628 289.306493 
L 210.239965 285.657014 
L 212.429261 281.640648 
L 214.582416 277.236257 
L 217.849553 269.924382 
L 227.919506 246.616488 
L 230.73944 240.745899 
L 233.607483 235.265216 
L 236.689434 229.952439 
L 238.965621 226.405998 
L 242.160057 221.937447 
L 245.344791 218.018759 
L 248.587957 214.504504 
L 252.137672 211.113748 
L 255.786004 208.01718 
L 260.345327 204.542679 
L 265.791795 200.75231 
L 273.238492 195.898573 
L 282.188793 190.351628 
L 290.143477 185.683781 
L 297.847479 181.428455 
L 306.15411 177.124809 
L 315.451098 172.605314 
L 326.312394 167.617692 
L 333.879186 164.272159 
L 333.879186 164.272159 
" clip-path="url(#pd412948c6e)" style="fill: none; stroke: #0010ff; stroke-width: 2; stroke-linecap: square"/>
   </g>
   <g id="line2d_107">
    <path d="M -1 300.96 
L 177.32878 300.85267 
L 182.730421 300.686368 
L 187.463954 300.353087 
L 191.581929 299.775691 
L 193.382682 299.387962 
L 195.218015 298.876159 
L 196.911291 298.275811 
L 198.48293 297.586996 
L 199.925526 296.825436 
L 202.553435 295.067613 
L 204.904876 293.029937 
L 207.332023 290.415942 
L 209.788217 287.222366 
L 212.115639 283.703627 
L 214.30471 280.001635 
L 217.515936 274.026739 
L 222.795586 263.454158 
L 228.359703 252.418664 
L 231.700374 246.225826 
L 235.558652 239.607705 
L 238.754498 234.558728 
L 242.193847 229.517213 
L 246.195605 224.074248 
L 250.274189 218.885346 
L 255.73265 212.336368 
L 261.700088 205.520715 
L 268.563705 197.993162 
L 275.556045 190.630646 
L 282.599979 183.554929 
L 288.587917 177.844811 
L 294.56441 172.453544 
L 300.546747 167.390772 
L 305.192203 163.70902 
L 309.886857 160.230053 
L 314.57548 157.01998 
L 319.220217 154.122943 
L 323.723003 151.601788 
L 327.455675 149.734844 
L 331.610771 147.896813 
L 333.856819 147.007261 
L 333.856819 147.007261 
" clip-path="url(#pd412948c6e)" style="fill: none; stroke: #eb00ff; stroke-width: 2; stroke-linecap: square"/>
   </g>
   <g id="line2d_108">
    <path d="M -1 300.96 
L 152.423648 300.875152 
L 159.5716 300.654419 
L 163.619261 300.348213 
L 167.160326 299.869311 
L 170.392635 299.166541 
L 173.616052 298.113742 
L 176.631523 296.722417 
L 179.514433 294.957469 
L 182.383479 292.734876 
L 185.140129 290.143128 
L 187.921964 287.079113 
L 190.686294 283.61204 
L 193.340942 279.92198 
L 196.009629 275.899353 
L 199.78751 269.758318 
L 203.923573 262.573636 
L 209.630797 252.138617 
L 220.255268 232.046246 
L 228.847784 215.993553 
L 234.505709 205.919666 
L 238.603266 199.026227 
L 242.711448 192.545662 
L 246.929468 186.410004 
L 249.764525 182.607238 
L 252.692632 178.962906 
L 255.479533 175.765312 
L 258.119973 172.977606 
L 260.764379 170.414543 
L 264.427964 167.21873 
L 268.488149 164.104692 
L 272.472377 161.406011 
L 277.487361 158.373 
L 283.468342 155.083585 
L 291.053298 151.212276 
L 296.676171 148.556225 
L 302.300196 146.159681 
L 306.163291 144.706358 
L 310.473608 143.297246 
L 314.904587 142.094949 
L 319.209571 141.165255 
L 323.205781 140.502792 
L 328.027921 139.940362 
L 332.991941 139.605822 
L 333.862666 139.57077 
L 333.862666 139.57077 
" clip-path="url(#pd412948c6e)" style="fill: none; stroke: #ff0018; stroke-width: 2; stroke-linecap: square"/>
   </g>
   <g id="patch_8">
    <path d="M 146.88 300.96 
L 146.88 162.36 
" style="fill: none; stroke: #000000; stroke-width: 0.8; stroke-linejoin: miter; stroke-linecap: square"/>
   </g>
   <g id="patch_9">
    <path d="M 298.08 300.96 
L 298.08 162.36 
" style="fill: none; stroke: #000000; stroke-width: 0.8; stroke-linejoin: miter; stroke-linecap: square"/>
   </g>
   <g id="patch_10">
    <path d="M 146.88 300.96 
L 298.08 300.96 
" style="fill: none; stroke: #000000; stroke-width: 0.8; stroke-linejoin: miter; stroke-linecap: square"/>
   </g>
   <g id="patch_11">
    <path d="M 146.88 162.36 
L 298.08 162.36 
" style="fill: none; stroke: #000000; stroke-width: 0.8; stroke-linejoin: miter; stroke-linecap: square"/>
   </g>
  </g>
 </g>
 <defs>
  <clipPath id="p90b6b23c12">
   <rect x="65.46142" y="3.00024" width="363.53834" height="331.88649"/>
  </clipPath>
  <clipPath id="pd412948c6e">
   <rect x="146.88" y="162.36" width="151.2" height="138.6"/>
  </clipPath>
 </defs>
</svg>
