<?xml version="1.0" encoding="utf-8" standalone="no"?>
<!DOCTYPE svg PUBLIC "-//W3C//DTD SVG 1.1//EN"
  "http://www.w3.org/Graphics/SVG/1.1/DTD/svg11.dtd">
<svg xmlns:xlink="http://www.w3.org/1999/xlink" width="432pt" height="396pt" viewBox="0 0 432 396" xmlns="http://www.w3.org/2000/svg" version="1.1">
 <metadata>
  <rdf:RDF xmlns:dc="http://purl.org/dc/elements/1.1/" xmlns:cc="http://creativecommons.org/ns#" xmlns:rdf="http://www.w3.org/1999/02/22-rdf-syntax-ns#">
   <cc:Work>
    <dc:type rdf:resource="http://purl.org/dc/dcmitype/StillImage"/>
    <dc:date>2025-05-27T13:49:47.678073</dc:date>
    <dc:format>image/svg+xml</dc:format>
    <dc:creator>
     <cc:Agent>
      <dc:title>Matplotlib v3.9.2, https://matplotlib.org/</dc:title>
     </cc:Agent>
    </dc:creator>
   </cc:Work>
  </rdf:RDF>
 </metadata>
 <defs>
  <style type="text/css">*{stroke-linejoin: round; stroke-linecap: butt}</style>
 </defs>
 <g id="figure_1">
  <g id="patch_1">
   <path d="M 0 396 
L 432 396 
L 432 0 
L 0 0 
L 0 396 
z
" style="fill: none"/>
  </g>
  <g id="axes_1">
   <g id="patch_2">
    <path d="M 65.46142 334.88673 
L 428.99976 334.88673 
L 428.99976 11.302443 
L 65.46142 11.302443 
z
" style="fill: #ffffff"/>
   </g>
   <g id="matplotlib.axis_1">
    <g id="xtick_1">
     <g id="line2d_1">
      <defs>
       <path id="m3ebd76c0d4" d="M 0 0 
L 0 3.5 
" style="stroke: #000000; stroke-width: 0.8"/>
      </defs>
      <g>
       <use xlink:href="#m3ebd76c0d4" x="72.452542" y="334.88673" style="stroke: #000000; stroke-width: 0.8"/>
      </g>
     </g>
     <g id="text_1">
      <!-- $\mathdefault{0}$ -->
      <g transform="translate(66.969685 358.491136) scale(0.24 -0.24)">
       <defs>
        <path id="CMR17-30" d="M 2688 2025 
C 2688 2416 2682 3080 2413 3591 
C 2176 4039 1798 4198 1466 4198 
C 1158 4198 768 4058 525 3597 
C 269 3118 243 2524 243 2025 
C 243 1661 250 1106 448 619 
C 723 -39 1216 -128 1466 -128 
C 1760 -128 2208 -7 2470 600 
C 2662 1042 2688 1559 2688 2025 
z
M 1466 -26 
C 1056 -26 813 325 723 812 
C 653 1188 653 1738 653 2096 
C 653 2588 653 2997 736 3387 
C 858 3929 1216 4096 1466 4096 
C 1728 4096 2067 3923 2189 3400 
C 2272 3036 2278 2607 2278 2096 
C 2278 1680 2278 1169 2202 792 
C 2067 95 1690 -26 1466 -26 
z
" transform="scale(0.015625)"/>
       </defs>
       <use xlink:href="#CMR17-30" transform="scale(0.996264)"/>
      </g>
     </g>
    </g>
    <g id="xtick_2">
     <g id="line2d_2">
      <g>
       <use xlink:href="#m3ebd76c0d4" x="142.363761" y="334.88673" style="stroke: #000000; stroke-width: 0.8"/>
      </g>
     </g>
     <g id="text_2">
      <!-- $\mathdefault{1}$ -->
      <g transform="translate(136.880904 358.491136) scale(0.24 -0.24)">
       <defs>
        <path id="CMR17-31" d="M 1702 4058 
C 1702 4192 1696 4192 1606 4192 
C 1357 3916 979 3827 621 3827 
C 602 3827 570 3827 563 3808 
C 557 3795 557 3782 557 3648 
C 755 3648 1088 3686 1344 3839 
L 1344 461 
C 1344 236 1331 160 781 160 
L 589 160 
L 589 0 
C 896 0 1216 0 1523 0 
C 1830 0 2150 0 2458 0 
L 2458 160 
L 2266 160 
C 1715 160 1702 230 1702 458 
L 1702 4058 
z
" transform="scale(0.015625)"/>
       </defs>
       <use xlink:href="#CMR17-31" transform="scale(0.996264)"/>
      </g>
     </g>
    </g>
    <g id="xtick_3">
     <g id="line2d_3">
      <g>
       <use xlink:href="#m3ebd76c0d4" x="212.27498" y="334.88673" style="stroke: #000000; stroke-width: 0.8"/>
      </g>
     </g>
     <g id="text_3">
      <!-- $\mathdefault{2}$ -->
      <g transform="translate(206.792123 358.491136) scale(0.24 -0.24)">
       <defs>
        <path id="CMR17-32" d="M 2669 989 
L 2554 989 
C 2490 536 2438 459 2413 420 
C 2381 369 1920 369 1830 369 
L 602 369 
C 832 619 1280 1072 1824 1597 
C 2214 1967 2669 2402 2669 3035 
C 2669 3790 2067 4224 1395 4224 
C 691 4224 262 3604 262 3030 
C 262 2780 448 2748 525 2748 
C 589 2748 781 2787 781 3010 
C 781 3207 614 3264 525 3264 
C 486 3264 448 3258 422 3245 
C 544 3790 915 4058 1306 4058 
C 1862 4058 2227 3617 2227 3035 
C 2227 2479 1901 2000 1536 1584 
L 262 146 
L 262 0 
L 2515 0 
L 2669 989 
z
" transform="scale(0.015625)"/>
       </defs>
       <use xlink:href="#CMR17-32" transform="scale(0.996264)"/>
      </g>
     </g>
    </g>
    <g id="xtick_4">
     <g id="line2d_4">
      <g>
       <use xlink:href="#m3ebd76c0d4" x="282.1862" y="334.88673" style="stroke: #000000; stroke-width: 0.8"/>
      </g>
     </g>
     <g id="text_4">
      <!-- $\mathdefault{3}$ -->
      <g transform="translate(276.703342 358.491136) scale(0.24 -0.24)">
       <defs>
        <path id="CMR17-33" d="M 1414 2157 
C 1984 2157 2234 1662 2234 1090 
C 2234 320 1824 25 1453 25 
C 1114 25 563 194 390 693 
C 422 680 454 680 486 680 
C 640 680 755 782 755 948 
C 755 1133 614 1216 486 1216 
C 378 1216 211 1165 211 926 
C 211 335 787 -128 1466 -128 
C 2176 -128 2720 430 2720 1085 
C 2720 1707 2208 2157 1600 2227 
C 2086 2328 2554 2756 2554 3329 
C 2554 3820 2048 4179 1472 4179 
C 890 4179 378 3829 378 3329 
C 378 3110 544 3072 627 3072 
C 762 3072 877 3155 877 3321 
C 877 3486 762 3569 627 3569 
C 602 3569 570 3569 544 3557 
C 730 3959 1235 4032 1459 4032 
C 1683 4032 2106 3925 2106 3320 
C 2106 3143 2080 2828 1862 2550 
C 1670 2304 1453 2304 1242 2284 
C 1210 2284 1062 2269 1037 2269 
C 992 2263 966 2257 966 2208 
C 966 2163 973 2157 1101 2157 
L 1414 2157 
z
" transform="scale(0.015625)"/>
       </defs>
       <use xlink:href="#CMR17-33" transform="scale(0.996264)"/>
      </g>
     </g>
    </g>
    <g id="xtick_5">
     <g id="line2d_5">
      <g>
       <use xlink:href="#m3ebd76c0d4" x="352.097419" y="334.88673" style="stroke: #000000; stroke-width: 0.8"/>
      </g>
     </g>
     <g id="text_5">
      <!-- $\mathdefault{4}$ -->
      <g transform="translate(346.614562 358.491136) scale(0.24 -0.24)">
       <defs>
        <path id="CMR17-34" d="M 2150 4122 
C 2150 4256 2144 4256 2029 4256 
L 128 1254 
L 128 1088 
L 1779 1088 
L 1779 457 
C 1779 224 1766 160 1318 160 
L 1197 160 
L 1197 0 
C 1402 0 1747 0 1965 0 
C 2182 0 2528 0 2733 0 
L 2733 160 
L 2611 160 
C 2163 160 2150 224 2150 457 
L 2150 1088 
L 2803 1088 
L 2803 1254 
L 2150 1254 
L 2150 4122 
z
M 1798 3703 
L 1798 1254 
L 256 1254 
L 1798 3703 
z
" transform="scale(0.015625)"/>
       </defs>
       <use xlink:href="#CMR17-34" transform="scale(0.996264)"/>
      </g>
     </g>
    </g>
    <g id="xtick_6">
     <g id="line2d_6">
      <g>
       <use xlink:href="#m3ebd76c0d4" x="422.008638" y="334.88673" style="stroke: #000000; stroke-width: 0.8"/>
      </g>
     </g>
     <g id="text_6">
      <!-- $\mathdefault{5}$ -->
      <g transform="translate(416.525781 358.491136) scale(0.24 -0.24)">
       <defs>
        <path id="CMR17-35" d="M 730 3692 
C 794 3666 1056 3584 1325 3584 
C 1920 3584 2246 3911 2432 4100 
C 2432 4157 2432 4192 2394 4192 
C 2387 4192 2374 4192 2323 4163 
C 2099 4058 1837 3973 1517 3973 
C 1325 3973 1037 3999 723 4139 
C 653 4171 640 4171 634 4171 
C 602 4171 595 4164 595 4037 
L 595 2203 
C 595 2089 595 2057 659 2057 
C 691 2057 704 2070 736 2114 
C 941 2401 1222 2522 1542 2522 
C 1766 2522 2246 2382 2246 1289 
C 2246 1085 2246 715 2054 421 
C 1894 159 1645 25 1370 25 
C 947 25 518 320 403 814 
C 429 807 480 795 506 795 
C 589 795 749 840 749 1038 
C 749 1210 627 1280 506 1280 
C 358 1280 262 1190 262 1011 
C 262 454 704 -128 1382 -128 
C 2042 -128 2669 440 2669 1264 
C 2669 2030 2170 2624 1549 2624 
C 1222 2624 947 2503 730 2274 
L 730 3692 
z
" transform="scale(0.015625)"/>
       </defs>
       <use xlink:href="#CMR17-35" transform="scale(0.996264)"/>
      </g>
     </g>
    </g>
    <g id="xtick_7">
     <g id="line2d_7">
      <defs>
       <path id="m309e4dd9eb" d="M 0 0 
L 0 2 
" style="stroke: #000000; stroke-width: 0.6"/>
      </defs>
      <g>
       <use xlink:href="#m309e4dd9eb" x="86.434786" y="334.88673" style="stroke: #000000; stroke-width: 0.6"/>
      </g>
     </g>
    </g>
    <g id="xtick_8">
     <g id="line2d_8">
      <g>
       <use xlink:href="#m309e4dd9eb" x="100.41703" y="334.88673" style="stroke: #000000; stroke-width: 0.6"/>
      </g>
     </g>
    </g>
    <g id="xtick_9">
     <g id="line2d_9">
      <g>
       <use xlink:href="#m309e4dd9eb" x="114.399274" y="334.88673" style="stroke: #000000; stroke-width: 0.6"/>
      </g>
     </g>
    </g>
    <g id="xtick_10">
     <g id="line2d_10">
      <g>
       <use xlink:href="#m309e4dd9eb" x="128.381517" y="334.88673" style="stroke: #000000; stroke-width: 0.6"/>
      </g>
     </g>
    </g>
    <g id="xtick_11">
     <g id="line2d_11">
      <g>
       <use xlink:href="#m309e4dd9eb" x="156.346005" y="334.88673" style="stroke: #000000; stroke-width: 0.6"/>
      </g>
     </g>
    </g>
    <g id="xtick_12">
     <g id="line2d_12">
      <g>
       <use xlink:href="#m309e4dd9eb" x="170.328249" y="334.88673" style="stroke: #000000; stroke-width: 0.6"/>
      </g>
     </g>
    </g>
    <g id="xtick_13">
     <g id="line2d_13">
      <g>
       <use xlink:href="#m309e4dd9eb" x="184.310493" y="334.88673" style="stroke: #000000; stroke-width: 0.6"/>
      </g>
     </g>
    </g>
    <g id="xtick_14">
     <g id="line2d_14">
      <g>
       <use xlink:href="#m309e4dd9eb" x="198.292737" y="334.88673" style="stroke: #000000; stroke-width: 0.6"/>
      </g>
     </g>
    </g>
    <g id="xtick_15">
     <g id="line2d_15">
      <g>
       <use xlink:href="#m309e4dd9eb" x="226.257224" y="334.88673" style="stroke: #000000; stroke-width: 0.6"/>
      </g>
     </g>
    </g>
    <g id="xtick_16">
     <g id="line2d_16">
      <g>
       <use xlink:href="#m309e4dd9eb" x="240.239468" y="334.88673" style="stroke: #000000; stroke-width: 0.6"/>
      </g>
     </g>
    </g>
    <g id="xtick_17">
     <g id="line2d_17">
      <g>
       <use xlink:href="#m309e4dd9eb" x="254.221712" y="334.88673" style="stroke: #000000; stroke-width: 0.6"/>
      </g>
     </g>
    </g>
    <g id="xtick_18">
     <g id="line2d_18">
      <g>
       <use xlink:href="#m309e4dd9eb" x="268.203956" y="334.88673" style="stroke: #000000; stroke-width: 0.6"/>
      </g>
     </g>
    </g>
    <g id="xtick_19">
     <g id="line2d_19">
      <g>
       <use xlink:href="#m309e4dd9eb" x="296.168444" y="334.88673" style="stroke: #000000; stroke-width: 0.6"/>
      </g>
     </g>
    </g>
    <g id="xtick_20">
     <g id="line2d_20">
      <g>
       <use xlink:href="#m309e4dd9eb" x="310.150687" y="334.88673" style="stroke: #000000; stroke-width: 0.6"/>
      </g>
     </g>
    </g>
    <g id="xtick_21">
     <g id="line2d_21">
      <g>
       <use xlink:href="#m309e4dd9eb" x="324.132931" y="334.88673" style="stroke: #000000; stroke-width: 0.6"/>
      </g>
     </g>
    </g>
    <g id="xtick_22">
     <g id="line2d_22">
      <g>
       <use xlink:href="#m309e4dd9eb" x="338.115175" y="334.88673" style="stroke: #000000; stroke-width: 0.6"/>
      </g>
     </g>
    </g>
    <g id="xtick_23">
     <g id="line2d_23">
      <g>
       <use xlink:href="#m309e4dd9eb" x="366.079663" y="334.88673" style="stroke: #000000; stroke-width: 0.6"/>
      </g>
     </g>
    </g>
    <g id="xtick_24">
     <g id="line2d_24">
      <g>
       <use xlink:href="#m309e4dd9eb" x="380.061907" y="334.88673" style="stroke: #000000; stroke-width: 0.6"/>
      </g>
     </g>
    </g>
    <g id="xtick_25">
     <g id="line2d_25">
      <g>
       <use xlink:href="#m309e4dd9eb" x="394.04415" y="334.88673" style="stroke: #000000; stroke-width: 0.6"/>
      </g>
     </g>
    </g>
    <g id="xtick_26">
     <g id="line2d_26">
      <g>
       <use xlink:href="#m309e4dd9eb" x="408.026394" y="334.88673" style="stroke: #000000; stroke-width: 0.6"/>
      </g>
     </g>
    </g>
    <g id="text_7">
     <!-- t [ms] -->
     <g transform="translate(217.614029 386.545722) scale(0.26 -0.26)">
      <defs>
       <path id="CMR17-74" d="M 966 2560 
L 1862 2560 
L 1862 2725 
L 966 2725 
L 966 3904 
L 851 3904 
C 838 3245 614 2668 70 2668 
L 70 2560 
L 627 2560 
L 627 771 
C 627 650 627 -64 1370 -64 
C 1747 -64 1965 306 1965 777 
L 1965 1140 
L 1850 1140 
L 1850 783 
C 1850 344 1677 51 1408 51 
C 1222 51 966 178 966 758 
L 966 2560 
z
" transform="scale(0.015625)"/>
       <path id="CMR17-5b" d="M 1504 -1600 
L 1504 -1377 
L 902 -1377 
L 902 4544 
L 1504 4544 
L 1504 4767 
L 678 4767 
L 678 -1600 
L 1504 -1600 
z
" transform="scale(0.015625)"/>
       <path id="CMR17-6d" d="M 4326 1933 
C 4326 2252 4269 2790 3507 2790 
C 3072 2790 2771 2496 2656 2151 
L 2650 2151 
C 2573 2676 2195 2790 1837 2790 
C 1331 2790 1069 2400 973 2144 
L 966 2144 
L 966 2790 
L 211 2720 
L 211 2554 
C 589 2554 646 2515 646 2208 
L 646 428 
C 646 184 621 153 211 153 
L 211 -13 
C 365 0 646 0 813 0 
C 979 0 1267 0 1421 -13 
L 1421 153 
C 1011 153 986 178 986 428 
L 986 1658 
C 986 2247 1344 2688 1792 2688 
C 2266 2688 2317 2266 2317 1958 
L 2317 428 
C 2317 184 2291 153 1882 153 
L 1882 -13 
C 2035 0 2317 0 2483 0 
C 2650 0 2938 0 3091 -13 
L 3091 153 
C 2682 153 2656 178 2656 428 
L 2656 1658 
C 2656 2247 3014 2688 3462 2688 
C 3936 2688 3987 2266 3987 1958 
L 3987 428 
C 3987 184 3962 153 3552 153 
L 3552 -13 
C 3706 0 3987 0 4154 0 
C 4320 0 4608 0 4762 -13 
L 4762 153 
C 4352 153 4326 178 4326 428 
L 4326 1933 
z
" transform="scale(0.015625)"/>
       <path id="CMR17-73" d="M 1978 2697 
C 1978 2813 1971 2819 1933 2819 
C 1907 2819 1901 2813 1824 2717 
C 1805 2691 1747 2626 1728 2601 
C 1523 2819 1235 2819 1126 2819 
C 416 2819 160 2447 160 2076 
C 160 1498 813 1365 998 1325 
C 1402 1243 1542 1217 1677 1101 
C 1760 1025 1901 884 1901 654 
C 1901 384 1747 38 1158 38 
C 602 38 403 460 288 1021 
C 269 1110 269 1117 218 1117 
C 166 1117 160 1110 160 983 
L 160 63 
C 160 -51 166 -58 205 -58 
C 237 -58 243 -51 275 0 
C 314 57 410 211 448 276 
C 576 103 800 -64 1158 -64 
C 1792 -64 2131 283 2131 784 
C 2131 1112 1958 1285 1875 1362 
C 1683 1561 1459 1606 1190 1657 
C 838 1735 390 1825 390 2217 
C 390 2383 480 2737 1126 2737 
C 1811 2737 1850 2094 1862 1888 
C 1869 1856 1901 1849 1920 1849 
C 1978 1849 1978 1869 1978 1978 
L 1978 2697 
z
" transform="scale(0.015625)"/>
       <path id="CMR17-5d" d="M 915 4767 
L 90 4767 
L 90 4544 
L 691 4544 
L 691 -1377 
L 90 -1377 
L 90 -1600 
L 915 -1600 
L 915 4767 
z
" transform="scale(0.015625)"/>
      </defs>
      <use xlink:href="#CMR17-74" transform="scale(0.996264)"/>
      <use xlink:href="#CMR17-5b" transform="translate(65.356734 0) scale(0.996264)"/>
      <use xlink:href="#CMR17-6d" transform="translate(90.227793 0) scale(0.996264)"/>
      <use xlink:href="#CMR17-73" transform="translate(167.147382 0) scale(0.996264)"/>
      <use xlink:href="#CMR17-5d" transform="translate(202.94872 0) scale(0.996264)"/>
     </g>
    </g>
   </g>
   <g id="matplotlib.axis_2">
    <g id="ytick_1">
     <g id="line2d_27">
      <defs>
       <path id="md3f4479865" d="M 0 0 
L -3.5 0 
" style="stroke: #000000; stroke-width: 0.8"/>
      </defs>
      <g>
       <use xlink:href="#md3f4479865" x="65.46142" y="334.88673" style="stroke: #000000; stroke-width: 0.8"/>
      </g>
     </g>
     <g id="text_8">
      <!-- $\mathdefault{0.0}$ -->
      <g transform="translate(30.026669 343.188933) scale(0.24 -0.24)">
       <defs>
        <path id="CMMI12-3a" d="M 1178 307 
C 1178 492 1024 619 870 619 
C 685 619 557 466 557 313 
C 557 128 710 0 864 0 
C 1050 0 1178 153 1178 307 
z
" transform="scale(0.015625)"/>
       </defs>
       <use xlink:href="#CMR17-30" transform="scale(0.996264)"/>
       <use xlink:href="#CMMI12-3a" transform="translate(45.690477 0) scale(0.996264)"/>
       <use xlink:href="#CMR17-30" transform="translate(72.787654 0) scale(0.996264)"/>
      </g>
     </g>
    </g>
    <g id="ytick_2">
     <g id="line2d_28">
      <g>
       <use xlink:href="#md3f4479865" x="65.46142" y="253.990659" style="stroke: #000000; stroke-width: 0.8"/>
      </g>
     </g>
     <g id="text_9">
      <!-- $\mathdefault{0.2}$ -->
      <g transform="translate(30.026669 262.292861) scale(0.24 -0.24)">
       <use xlink:href="#CMR17-30" transform="scale(0.996264)"/>
       <use xlink:href="#CMMI12-3a" transform="translate(45.690477 0) scale(0.996264)"/>
       <use xlink:href="#CMR17-32" transform="translate(72.787654 0) scale(0.996264)"/>
      </g>
     </g>
    </g>
    <g id="ytick_3">
     <g id="line2d_29">
      <g>
       <use xlink:href="#md3f4479865" x="65.46142" y="173.094587" style="stroke: #000000; stroke-width: 0.8"/>
      </g>
     </g>
     <g id="text_10">
      <!-- $\mathdefault{0.4}$ -->
      <g transform="translate(30.026669 181.396789) scale(0.24 -0.24)">
       <use xlink:href="#CMR17-30" transform="scale(0.996264)"/>
       <use xlink:href="#CMMI12-3a" transform="translate(45.690477 0) scale(0.996264)"/>
       <use xlink:href="#CMR17-34" transform="translate(72.787654 0) scale(0.996264)"/>
      </g>
     </g>
    </g>
    <g id="ytick_4">
     <g id="line2d_30">
      <g>
       <use xlink:href="#md3f4479865" x="65.46142" y="92.198515" style="stroke: #000000; stroke-width: 0.8"/>
      </g>
     </g>
     <g id="text_11">
      <!-- $\mathdefault{0.6}$ -->
      <g transform="translate(30.026669 100.500717) scale(0.24 -0.24)">
       <defs>
        <path id="CMR17-36" d="M 678 2176 
C 678 3690 1395 4032 1811 4032 
C 1946 4032 2272 4009 2400 3776 
C 2298 3776 2106 3776 2106 3553 
C 2106 3381 2246 3323 2336 3323 
C 2394 3323 2566 3348 2566 3560 
C 2566 3954 2246 4179 1805 4179 
C 1043 4179 243 3390 243 1984 
C 243 253 966 -128 1478 -128 
C 2099 -128 2688 427 2688 1283 
C 2688 2081 2170 2662 1517 2662 
C 1126 2662 838 2407 678 1960 
L 678 2176 
z
M 1478 25 
C 691 25 691 1200 691 1436 
C 691 1896 909 2560 1504 2560 
C 1613 2560 1926 2560 2138 2120 
C 2253 1870 2253 1609 2253 1289 
C 2253 944 2253 690 2118 434 
C 1978 171 1773 25 1478 25 
z
" transform="scale(0.015625)"/>
       </defs>
       <use xlink:href="#CMR17-30" transform="scale(0.996264)"/>
       <use xlink:href="#CMMI12-3a" transform="translate(45.690477 0) scale(0.996264)"/>
       <use xlink:href="#CMR17-36" transform="translate(72.787654 0) scale(0.996264)"/>
      </g>
     </g>
    </g>
    <g id="ytick_5">
     <g id="line2d_31">
      <g>
       <use xlink:href="#md3f4479865" x="65.46142" y="11.302443" style="stroke: #000000; stroke-width: 0.8"/>
      </g>
     </g>
     <g id="text_12">
      <!-- $\mathdefault{0.8}$ -->
      <g transform="translate(30.026669 19.604645) scale(0.24 -0.24)">
       <defs>
        <path id="CMR17-38" d="M 1741 2264 
C 2144 2467 2554 2773 2554 3263 
C 2554 3841 1990 4179 1472 4179 
C 890 4179 378 3759 378 3180 
C 378 3021 416 2747 666 2505 
C 730 2442 998 2251 1171 2130 
C 883 1983 211 1634 211 934 
C 211 279 838 -128 1459 -128 
C 2144 -128 2720 362 2720 1010 
C 2720 1590 2330 1857 2074 2029 
L 1741 2264 
z
M 902 2822 
C 851 2854 595 3051 595 3351 
C 595 3739 998 4032 1459 4032 
C 1965 4032 2336 3676 2336 3262 
C 2336 2669 1670 2331 1638 2331 
C 1632 2331 1626 2331 1574 2370 
L 902 2822 
z
M 2080 1519 
C 2176 1449 2483 1240 2483 851 
C 2483 381 2010 25 1472 25 
C 890 25 448 438 448 940 
C 448 1443 838 1862 1280 2060 
L 2080 1519 
z
" transform="scale(0.015625)"/>
       </defs>
       <use xlink:href="#CMR17-30" transform="scale(0.996264)"/>
       <use xlink:href="#CMMI12-3a" transform="translate(45.690477 0) scale(0.996264)"/>
       <use xlink:href="#CMR17-38" transform="translate(72.787654 0) scale(0.996264)"/>
      </g>
     </g>
    </g>
    <g id="ytick_6">
     <g id="line2d_32">
      <defs>
       <path id="mb67691a757" d="M 0 0 
L -2 0 
" style="stroke: #000000; stroke-width: 0.6"/>
      </defs>
      <g>
       <use xlink:href="#mb67691a757" x="65.46142" y="318.707516" style="stroke: #000000; stroke-width: 0.6"/>
      </g>
     </g>
    </g>
    <g id="ytick_7">
     <g id="line2d_33">
      <g>
       <use xlink:href="#mb67691a757" x="65.46142" y="302.528302" style="stroke: #000000; stroke-width: 0.6"/>
      </g>
     </g>
    </g>
    <g id="ytick_8">
     <g id="line2d_34">
      <g>
       <use xlink:href="#mb67691a757" x="65.46142" y="286.349087" style="stroke: #000000; stroke-width: 0.6"/>
      </g>
     </g>
    </g>
    <g id="ytick_9">
     <g id="line2d_35">
      <g>
       <use xlink:href="#mb67691a757" x="65.46142" y="270.169873" style="stroke: #000000; stroke-width: 0.6"/>
      </g>
     </g>
    </g>
    <g id="ytick_10">
     <g id="line2d_36">
      <g>
       <use xlink:href="#mb67691a757" x="65.46142" y="237.811444" style="stroke: #000000; stroke-width: 0.6"/>
      </g>
     </g>
    </g>
    <g id="ytick_11">
     <g id="line2d_37">
      <g>
       <use xlink:href="#mb67691a757" x="65.46142" y="221.63223" style="stroke: #000000; stroke-width: 0.6"/>
      </g>
     </g>
    </g>
    <g id="ytick_12">
     <g id="line2d_38">
      <g>
       <use xlink:href="#mb67691a757" x="65.46142" y="205.453015" style="stroke: #000000; stroke-width: 0.6"/>
      </g>
     </g>
    </g>
    <g id="ytick_13">
     <g id="line2d_39">
      <g>
       <use xlink:href="#mb67691a757" x="65.46142" y="189.273801" style="stroke: #000000; stroke-width: 0.6"/>
      </g>
     </g>
    </g>
    <g id="ytick_14">
     <g id="line2d_40">
      <g>
       <use xlink:href="#mb67691a757" x="65.46142" y="156.915372" style="stroke: #000000; stroke-width: 0.6"/>
      </g>
     </g>
    </g>
    <g id="ytick_15">
     <g id="line2d_41">
      <g>
       <use xlink:href="#mb67691a757" x="65.46142" y="140.736158" style="stroke: #000000; stroke-width: 0.6"/>
      </g>
     </g>
    </g>
    <g id="ytick_16">
     <g id="line2d_42">
      <g>
       <use xlink:href="#mb67691a757" x="65.46142" y="124.556943" style="stroke: #000000; stroke-width: 0.6"/>
      </g>
     </g>
    </g>
    <g id="ytick_17">
     <g id="line2d_43">
      <g>
       <use xlink:href="#mb67691a757" x="65.46142" y="108.377729" style="stroke: #000000; stroke-width: 0.6"/>
      </g>
     </g>
    </g>
    <g id="ytick_18">
     <g id="line2d_44">
      <g>
       <use xlink:href="#mb67691a757" x="65.46142" y="76.0193" style="stroke: #000000; stroke-width: 0.6"/>
      </g>
     </g>
    </g>
    <g id="ytick_19">
     <g id="line2d_45">
      <g>
       <use xlink:href="#mb67691a757" x="65.46142" y="59.840086" style="stroke: #000000; stroke-width: 0.6"/>
      </g>
     </g>
    </g>
    <g id="ytick_20">
     <g id="line2d_46">
      <g>
       <use xlink:href="#mb67691a757" x="65.46142" y="43.660871" style="stroke: #000000; stroke-width: 0.6"/>
      </g>
     </g>
    </g>
    <g id="ytick_21">
     <g id="line2d_47">
      <g>
       <use xlink:href="#mb67691a757" x="65.46142" y="27.481657" style="stroke: #000000; stroke-width: 0.6"/>
      </g>
     </g>
    </g>
    <g id="text_13">
     <!-- Carbon mass fraction of $\mathrm{CH_4}$ -->
     <g transform="translate(20.988342 323.69679) rotate(-90) scale(0.26 -0.26)">
      <defs>
       <path id="CMR17-43" d="M 3974 4289 
C 3974 4403 3968 4410 3930 4410 
C 3904 4410 3898 4403 3853 4327 
L 3571 3792 
C 3258 4187 2874 4416 2381 4416 
C 1286 4416 294 3456 294 2148 
C 294 826 1286 -128 2387 -128 
C 3366 -128 3974 730 3974 1461 
C 3974 1524 3974 1550 3917 1550 
C 3866 1550 3866 1531 3859 1474 
C 3808 585 3168 38 2477 38 
C 1824 38 781 495 781 2147 
C 781 3805 1843 4250 2464 4250 
C 3187 4250 3712 3628 3834 2745 
C 3846 2668 3846 2655 3904 2655 
C 3974 2655 3974 2668 3974 2783 
L 3974 4289 
z
" transform="scale(0.015625)"/>
       <path id="CMR17-61" d="M 2304 1653 
C 2304 2072 2304 2294 2035 2543 
C 1798 2752 1523 2816 1306 2816 
C 800 2816 435 2407 435 1971 
C 435 1728 627 1728 666 1728 
C 749 1728 896 1778 896 1954 
C 896 2112 774 2181 666 2181 
C 640 2181 608 2174 589 2168 
C 723 2592 1069 2714 1293 2714 
C 1613 2714 1965 2429 1965 1885 
L 1965 1600 
C 1587 1600 1133 1549 774 1357 
C 371 1133 256 813 256 570 
C 256 77 832 -64 1171 -64 
C 1523 -64 1850 139 1990 511 
C 2003 233 2182 -18 2464 -18 
C 2598 -18 2938 70 2938 567 
L 2938 920 
L 2822 920 
L 2822 562 
C 2822 178 2650 128 2566 128 
C 2304 128 2304 458 2304 738 
L 2304 1653 
z
M 1965 870 
C 1965 317 1568 38 1216 38 
C 896 38 646 275 646 570 
C 646 761 730 1100 1101 1305 
C 1408 1478 1760 1504 1965 1504 
L 1965 870 
z
" transform="scale(0.015625)"/>
       <path id="CMR17-72" d="M 960 1497 
C 960 2112 1222 2688 1702 2688 
C 1747 2688 1792 2682 1837 2662 
C 1837 2662 1696 2617 1696 2452 
C 1696 2298 1818 2234 1914 2234 
C 1990 2234 2131 2279 2131 2458 
C 2131 2663 1926 2790 1709 2790 
C 1222 2790 1011 2317 947 2093 
L 941 2093 
L 941 2790 
L 198 2720 
L 198 2554 
C 576 2554 634 2515 634 2208 
L 634 428 
C 634 184 608 153 198 153 
L 198 -13 
C 352 0 646 0 813 0 
C 998 0 1325 0 1498 -13 
L 1498 153 
C 1037 153 960 153 960 440 
L 960 1497 
z
" transform="scale(0.015625)"/>
       <path id="CMR17-62" d="M 960 4396 
L 198 4326 
L 198 4160 
C 576 4160 634 4122 634 3817 
L 634 -13 
L 749 -13 
L 934 441 
C 1120 141 1395 -64 1766 -64 
C 2406 -64 3053 500 3053 1370 
C 3053 2188 2477 2790 1830 2790 
C 1434 2790 1152 2579 960 2330 
L 960 4396 
z
M 973 2004 
C 973 2118 973 2138 1062 2272 
C 1312 2657 1670 2688 1792 2688 
C 1984 2688 2643 2585 2643 1376 
C 2643 108 1888 38 1734 38 
C 1536 38 1248 114 1043 486 
C 973 608 973 621 973 735 
L 973 2004 
z
" transform="scale(0.015625)"/>
       <path id="CMR17-6f" d="M 2758 1356 
C 2758 2176 2163 2816 1466 2816 
C 768 2816 173 2176 173 1356 
C 173 551 768 -64 1466 -64 
C 2163 -64 2758 551 2758 1356 
z
M 1466 51 
C 1165 51 909 230 762 480 
C 602 767 582 1126 582 1408 
C 582 1677 595 2010 762 2298 
C 890 2509 1139 2714 1466 2714 
C 1754 2714 1997 2554 2150 2330 
C 2349 2029 2349 1607 2349 1408 
C 2349 1158 2336 775 2163 467 
C 1984 173 1709 51 1466 51 
z
" transform="scale(0.015625)"/>
       <path id="CMR17-6e" d="M 2656 1933 
C 2656 2259 2592 2790 1837 2790 
C 1331 2790 1069 2400 973 2144 
L 966 2144 
L 966 2790 
L 211 2720 
L 211 2554 
C 589 2554 646 2515 646 2208 
L 646 428 
C 646 184 621 153 211 153 
L 211 -13 
C 365 0 646 0 813 0 
C 979 0 1267 0 1421 -13 
L 1421 153 
C 1011 153 986 178 986 428 
L 986 1658 
C 986 2247 1344 2688 1792 2688 
C 2266 2688 2317 2266 2317 1958 
L 2317 428 
C 2317 184 2291 153 1882 153 
L 1882 -13 
C 2035 0 2317 0 2483 0 
C 2650 0 2938 0 3091 -13 
L 3091 153 
C 2682 153 2656 178 2656 428 
L 2656 1933 
z
" transform="scale(0.015625)"/>
       <path id="CMR17-66" d="M 979 2560 
L 1709 2560 
L 1709 2725 
L 966 2725 
L 966 3494 
C 966 4022 1235 4352 1510 4352 
C 1594 4352 1690 4327 1754 4282 
C 1702 4269 1568 4225 1568 4067 
C 1568 3901 1696 3850 1786 3850 
C 1875 3850 2003 3901 2003 4067 
C 2003 4308 1773 4454 1517 4454 
C 1152 4454 653 4156 653 3481 
L 653 2725 
L 141 2725 
L 141 2560 
L 653 2560 
L 653 427 
C 653 184 627 153 218 153 
L 218 -13 
C 371 0 666 0 832 0 
C 1018 0 1344 0 1517 -13 
L 1517 153 
C 1056 153 979 153 979 439 
L 979 2560 
z
" transform="scale(0.015625)"/>
       <path id="CMR17-63" d="M 2234 2240 
C 2112 2240 1933 2240 1933 2017 
C 1933 1838 2080 1787 2163 1787 
C 2208 1787 2394 1807 2394 2024 
C 2394 2467 1958 2803 1466 2803 
C 787 2803 211 2178 211 1363 
C 211 516 813 -64 1466 -64 
C 2259 -64 2458 677 2458 748 
C 2458 774 2451 793 2406 793 
C 2362 793 2355 787 2330 703 
C 2163 180 1798 51 1523 51 
C 1114 51 621 427 621 1369 
C 621 2338 1094 2688 1472 2688 
C 1722 2688 2093 2573 2234 2240 
z
" transform="scale(0.015625)"/>
       <path id="CMR17-69" d="M 992 3909 
C 992 4049 877 4170 730 4170 
C 589 4170 467 4056 467 3909 
C 467 3769 582 3648 730 3648 
C 870 3648 992 3763 992 3909 
z
M 243 2706 
L 243 2541 
C 602 2541 653 2502 653 2197 
L 653 427 
C 653 184 627 153 218 153 
L 218 -13 
C 371 0 646 0 806 0 
C 960 0 1222 0 1370 -13 
L 1370 153 
C 992 153 979 191 979 420 
L 979 2776 
L 243 2706 
z
" transform="scale(0.015625)"/>
       <path id="CMR17-48" d="M 3590 3905 
C 3590 4192 3661 4192 4102 4192 
L 4102 4352 
C 3917 4352 3578 4352 3379 4352 
C 3181 4352 2842 4352 2656 4352 
L 2656 4192 
C 3098 4192 3168 4192 3168 3904 
L 3168 2341 
L 1261 2341 
L 1261 3904 
C 1261 4192 1331 4192 1773 4192 
L 1773 4352 
C 1587 4352 1248 4352 1050 4352 
C 851 4352 512 4352 326 4352 
L 326 4192 
C 768 4192 838 4192 838 3905 
L 838 447 
C 838 160 768 160 326 160 
L 326 0 
C 512 0 851 0 1050 0 
C 1248 0 1587 0 1773 0 
L 1773 160 
C 1331 160 1261 160 1261 446 
L 1261 2176 
L 3168 2176 
L 3168 446 
C 3168 160 3098 160 2656 160 
L 2656 0 
C 2842 0 3181 0 3379 0 
C 3578 0 3917 0 4102 0 
L 4102 160 
C 3661 160 3590 160 3590 447 
L 3590 3905 
z
" transform="scale(0.015625)"/>
      </defs>
      <use xlink:href="#CMR17-43" transform="scale(0.996264)"/>
      <use xlink:href="#CMR17-61" transform="translate(66.509881 0) scale(0.996264)"/>
      <use xlink:href="#CMR17-72" transform="translate(112.200358 0) scale(0.996264)"/>
      <use xlink:href="#CMR17-62" transform="translate(147.481125 0) scale(0.996264)"/>
      <use xlink:href="#CMR17-6f" transform="translate(200.978934 0) scale(0.996264)"/>
      <use xlink:href="#CMR17-6e" transform="translate(246.669411 0) scale(0.996264)"/>
      <use xlink:href="#CMR17-6d" transform="translate(327.640747 0) scale(0.996264)"/>
      <use xlink:href="#CMR17-61" transform="translate(404.560337 0) scale(0.996264)"/>
      <use xlink:href="#CMR17-73" transform="translate(450.250814 0) scale(0.996264)"/>
      <use xlink:href="#CMR17-73" transform="translate(486.052152 0) scale(0.996264)"/>
      <use xlink:href="#CMR17-66" transform="translate(551.929456 0) scale(0.996264)"/>
      <use xlink:href="#CMR17-72" transform="translate(579.402968 0) scale(0.996264)"/>
      <use xlink:href="#CMR17-61" transform="translate(614.683736 0) scale(0.996264)"/>
      <use xlink:href="#CMR17-63" transform="translate(660.374213 0) scale(0.996264)"/>
      <use xlink:href="#CMR17-74" transform="translate(700.859874 0) scale(0.996264)"/>
      <use xlink:href="#CMR17-69" transform="translate(736.140641 0) scale(0.996264)"/>
      <use xlink:href="#CMR17-6f" transform="translate(761.0117 0) scale(0.996264)"/>
      <use xlink:href="#CMR17-6e" transform="translate(806.702177 0) scale(0.996264)"/>
      <use xlink:href="#CMR17-6f" transform="translate(887.673513 0) scale(0.996264)"/>
      <use xlink:href="#CMR17-66" transform="translate(933.36399 0) scale(0.996264)"/>
      <use xlink:href="#CMR17-43" transform="translate(990.913469 0) scale(0.996264)"/>
      <use xlink:href="#CMR17-48" transform="translate(1057.42335 0) scale(0.996264)"/>
      <use xlink:href="#CMR17-34" transform="translate(1126.495779 -14.943915) scale(0.697382)"/>
     </g>
    </g>
   </g>
   <g id="line2d_48">
    <path d="M 73.273922 -1 
L 74.043548 67.075885 
L 74.667854 101.762752 
L 75.21792 121.941928 
L 75.915776 139.762453 
L 76.698561 153.895385 
L 77.403855 163.487435 
L 78.381194 173.742139 
L 79.598049 183.414757 
L 80.96304 191.741907 
L 81.985626 196.831097 
L 83.14343 201.758061 
L 84.565236 206.914196 
L 86.15389 211.818427 
L 87.979086 216.633605 
L 90.091076 221.398337 
L 92.36256 225.802409 
L 94.825731 229.940248 
L 97.680065 234.100637 
L 100.925619 238.196056 
L 102.939646 240.466332 
L 104.953674 242.563849 
L 107.206666 244.733119 
L 109.698623 246.944096 
L 112.19058 248.984048 
L 114.826792 250.980833 
L 117.607257 252.930631 
L 120.387722 254.740404 
L 123.470683 256.603977 
L 126.856138 258.498982 
L 130.241594 260.255601 
L 134.008964 262.068438 
L 138.158249 263.914206 
L 142.307535 265.622226 
L 146.704572 267.301074 
L 155.994152 270.475694 
L 161.122896 272.046451 
L 172.348293 275.120731 
L 179.228909 276.798902 
L 187.377444 278.618588 
L 195.525979 280.282228 
L 204.185485 281.903615 
L 213.355962 283.478944 
L 222.526439 284.928309 
L 232.719352 286.411368 
L 243.934702 287.908638 
L 255.150052 289.284041 
L 267.67405 290.695516 
L 281.506698 292.122805 
L 309.246792 294.642035 
L 337.21128 296.812802 
L 365.175767 298.695707 
L 393.140255 300.349393 
L 433 302.390457 
L 433 302.390457 
" clip-path="url(#pc0a0bf622f)" style="fill: none; stroke: #fbf700; stroke-width: 2; stroke-linecap: square"/>
   </g>
   <g id="line2d_49">
    <path d="M 73.278078 -1 
L 74.143328 80.835321 
L 74.648931 109.913535 
L 75.1835 130.1656 
L 75.858804 147.373021 
L 76.494272 158.932456 
L 77.330331 170.341303 
L 78.122369 178.72963 
L 79.106649 187.091486 
L 80.244195 194.876457 
L 81.574467 202.274727 
L 83.151935 209.432635 
L 84.368066 214.096935 
L 85.766416 218.774834 
L 87.260232 223.140738 
L 88.858225 227.244447 
L 90.825149 231.664349 
L 93.032084 235.975246 
L 95.590123 240.307716 
L 98.339027 244.346946 
L 101.28837 248.127347 
L 104.648168 251.887206 
L 108.537717 255.671151 
L 112.926732 259.370684 
L 115.605563 261.389239 
L 118.284393 263.255634 
L 121.104675 265.077105 
L 127.028141 268.500413 
L 130.279299 270.184327 
L 137.360469 273.465838 
L 141.265501 275.084929 
L 145.534979 276.724827 
L 149.804457 278.245301 
L 154.761001 279.879404 
L 160.404611 281.590748 
L 166.048221 283.164275 
L 171.989387 284.691616 
L 184.466833 287.539867 
L 191.332389 288.933572 
L 206.31717 291.633318 
L 214.583553 292.954866 
L 232.664303 295.513757 
L 253.514518 298.015757 
L 276.835667 300.382528 
L 304.800154 302.768469 
L 332.764642 304.781558 
L 360.72913 306.508744 
L 388.693617 308.010842 
L 416.658105 309.331891 
L 430.640349 309.935108 
L 430.640349 309.935108 
" clip-path="url(#pc0a0bf622f)" style="fill: none; stroke: #000000; stroke-width: 2; stroke-linecap: square"/>
   </g>
   <g id="line2d_50">
    <path d="M 73.065194 -1 
L 73.85183 98.54644 
L 74.297782 129.396314 
L 74.783035 150.386218 
L 75.372255 167.108152 
L 76.137592 181.845976 
L 76.976939 193.390865 
L 77.783499 201.923699 
L 78.736627 209.999373 
L 79.66977 216.488112 
L 80.946708 223.812972 
L 82.473364 230.939734 
L 84.104211 237.195428 
L 86.001095 243.230787 
L 87.653056 247.689101 
L 89.471938 251.947989 
L 91.457741 255.991087 
L 93.833498 260.180262 
L 96.326281 263.983583 
L 98.936089 267.455821 
L 102.052362 271.064125 
L 105.495189 274.514954 
L 109.264571 277.787638 
L 111.755087 279.714983 
L 114.245603 281.485301 
L 116.73612 283.118856 
L 119.773386 284.950017 
L 122.810653 286.627424 
L 125.84792 288.171342 
L 129.533463 289.8893 
L 133.219007 291.459501 
L 136.90455 292.901732 
L 140.989099 294.370174 
L 149.158197 296.964815 
L 158.978146 299.603505 
L 163.88812 300.765698 
L 175.792921 303.239384 
L 181.745321 304.32427 
L 189.631258 305.633378 
L 205.403133 307.8935 
L 222.921255 309.971362 
L 242.211303 311.869348 
L 263.273276 313.594021 
L 288.845821 315.326239 
L 315.614337 316.823821 
L 343.578824 318.130977 
L 371.543312 319.237659 
L 413.490044 320.615213 
L 433 321.164704 
L 433 321.164704 
" clip-path="url(#pc0a0bf622f)" style="fill: none; stroke: #08ff00; stroke-width: 2; stroke-linecap: square"/>
   </g>
   <g id="line2d_51">
    <path d="M 73.151243 -1 
L 73.945509 81.512113 
L 74.547033 121.366689 
L 75.106501 146.520997 
L 75.807174 168.347213 
L 76.488394 183.371616 
L 77.25799 195.943348 
L 78.117148 206.557486 
L 79.014448 215.191959 
L 80.164007 223.898185 
L 81.406974 231.357702 
L 82.761915 237.949434 
L 84.393082 244.434424 
L 85.819469 249.184081 
L 87.340433 253.552682 
L 88.957995 257.594587 
L 90.770772 261.550413 
L 92.686572 265.214301 
L 94.705647 268.620657 
L 96.931527 271.943183 
L 99.778503 275.666913 
L 102.956162 279.273803 
L 106.504779 282.76667 
L 110.470691 286.147559 
L 114.748276 289.308509 
L 119.543586 292.38043 
L 124.593308 295.188611 
L 130.088904 297.849178 
L 136.667712 300.603692 
L 144.230783 303.314019 
L 152.515478 305.845641 
L 161.980778 308.303235 
L 172.270313 310.566279 
L 183.439202 312.64862 
L 196.42192 314.689812 
L 204.039705 315.734871 
L 221.528126 317.796901 
L 241.623601 319.716025 
L 263.03665 321.37029 
L 285.795367 322.801179 
L 311.635863 324.121488 
L 338.777802 325.247729 
L 366.74229 326.198074 
L 408.689022 327.329903 
L 429.662387 327.794969 
L 429.662387 327.794969 
" clip-path="url(#pc0a0bf622f)" style="fill: none; stroke: #00fff3; stroke-width: 2; stroke-linecap: square"/>
   </g>
   <g id="line2d_52">
    <path d="M 73.16107 -1 
L 73.78094 59.467598 
L 74.329077 91.88637 
L 74.926298 113.207747 
L 75.540665 127.484594 
L 76.304085 139.808152 
L 77.147617 149.725693 
L 78.155009 158.755511 
L 79.396462 167.428221 
L 80.578231 174.114633 
L 82.044339 181.015712 
L 83.712981 187.577491 
L 85.600943 193.840152 
L 87.714659 199.802794 
L 90.066889 205.485598 
L 91.810696 209.201672 
L 93.757426 212.95174 
L 96.288216 217.31502 
L 99.157245 221.698342 
L 102.456932 226.152098 
L 106.278114 230.689135 
L 110.495938 235.087615 
L 115.382193 239.554988 
L 118.103103 241.803702 
L 121.101795 244.114217 
L 124.100487 246.269543 
L 127.270118 248.398743 
L 130.610688 250.496015 
L 133.951259 252.459588 
L 137.622704 254.480639 
L 141.625023 256.538707 
L 145.627343 258.462443 
L 150.305905 260.560566 
L 155.660708 262.786563 
L 161.015512 264.84855 
L 166.979171 266.976307 
L 173.551686 269.141555 
L 180.124201 271.14242 
L 187.039858 273.092696 
L 194.298656 274.989795 
L 201.557455 276.751821 
L 209.560136 278.556586 
L 218.3067 280.383665 
L 227.053263 282.077198 
L 236.765805 283.820339 
L 247.444325 285.590462 
L 258.122845 287.226278 
L 270.453227 288.969215 
L 284.435471 290.781114 
L 298.417715 292.44157 
L 312.399959 293.970523 
L 340.364446 296.696774 
L 368.328934 299.061279 
L 396.293422 301.136614 
L 431.249031 303.40445 
L 431.249031 303.40445 
" clip-path="url(#pc0a0bf622f)" style="fill: none; stroke: #0010ff; stroke-width: 2; stroke-linecap: square"/>
   </g>
   <g id="line2d_53">
    <path d="M 73.316466 -1 
L 74.125036 69.06157 
L 74.695435 100.817179 
L 75.344604 124.876164 
L 75.995516 141.739175 
L 76.69491 155.247135 
L 77.630011 168.904606 
L 78.621427 180.023014 
L 79.877318 191.036757 
L 80.855474 198.024613 
L 81.919738 204.508539 
L 83.18536 211.086162 
L 84.451457 216.73397 
L 85.71803 221.664732 
L 87.503729 227.673254 
L 89.500176 233.390413 
L 91.707371 238.782924 
L 94.426134 244.417099 
L 95.785516 246.904023 
L 97.435451 249.678976 
L 100.735321 254.56624 
L 102.796731 257.251068 
L 104.858141 259.702801 
L 106.919551 261.953644 
L 109.476234 264.505069 
L 112.032916 266.82787 
L 114.589599 268.954337 
L 117.764403 271.360581 
L 120.939208 273.544506 
L 124.114013 275.53825 
L 128.0522 277.785631 
L 131.990387 279.819736 
L 135.928574 281.672071 
L 140.853586 283.770952 
L 145.778599 285.664443 
L 150.703611 287.383735 
L 156.870741 289.328678 
L 163.037871 291.078153 
L 169.205001 292.662619 
L 176.919995 294.448935 
L 184.634988 296.052042 
L 192.349982 297.501094 
L 201.8969 299.115004 
L 211.443818 300.562415 
L 220.990737 301.870019 
L 232.695332 303.312932 
L 244.399928 304.607596 
L 256.104524 305.777675 
L 270.086767 307.037941 
L 298.051255 309.199278 
L 326.015743 310.993043 
L 353.98023 312.511392 
L 381.944718 313.816782 
L 423.89145 315.468617 
L 430.882572 315.714523 
L 430.882572 315.714523 
" clip-path="url(#pc0a0bf622f)" style="fill: none; stroke: #eb00ff; stroke-width: 2; stroke-linecap: square"/>
   </g>
   <g id="line2d_54">
    <path d="M 72.632056 -1 
L 72.969815 113.124058 
L 73.285979 156.925379 
L 73.681685 183.772936 
L 74.144396 201.12916 
L 74.683423 213.640444 
L 75.233833 222.35898 
L 76.042109 231.353909 
L 76.784954 237.369322 
L 77.673913 242.906985 
L 78.768663 248.181219 
L 80.142191 253.303757 
L 81.242845 256.626706 
L 82.436426 259.688279 
L 83.716453 262.510599 
L 85.162894 265.271302 
L 86.697017 267.82294 
L 88.40387 270.313266 
L 90.541226 273.034928 
L 92.921732 275.668914 
L 95.463852 278.126968 
L 98.24766 280.491796 
L 101.332715 282.798398 
L 104.640339 284.98016 
L 108.31442 287.121475 
L 112.146301 289.099932 
L 116.186619 290.957293 
L 120.694449 292.803359 
L 125.856927 294.678633 
L 131.518102 296.497091 
L 138.020721 298.338133 
L 145.122668 300.10562 
L 152.809342 301.78905 
L 161.650869 303.489199 
L 173.5941 305.470842 
L 187.420456 307.418144 
L 203.79448 309.363632 
L 223.24098 311.297959 
L 244.401057 313.06036 
L 267.62939 314.690627 
L 292.782869 316.186426 
L 319.120386 317.523931 
L 347.084874 318.746076 
L 389.031606 320.288224 
L 430.978337 321.566401 
L 430.978337 321.566401 
" clip-path="url(#pc0a0bf622f)" style="fill: none; stroke: #ff0018; stroke-width: 2; stroke-linecap: square"/>
   </g>
   <g id="patch_3">
    <path d="M 65.46142 334.88673 
L 65.46142 11.302443 
" style="fill: none; stroke: #000000; stroke-width: 0.8; stroke-linejoin: miter; stroke-linecap: square"/>
   </g>
   <g id="patch_4">
    <path d="M 428.99976 334.88673 
L 428.99976 11.302443 
" style="fill: none; stroke: #000000; stroke-width: 0.8; stroke-linejoin: miter; stroke-linecap: square"/>
   </g>
   <g id="patch_5">
    <path d="M 65.46142 334.88673 
L 428.99976 334.88673 
" style="fill: none; stroke: #000000; stroke-width: 0.8; stroke-linejoin: miter; stroke-linecap: square"/>
   </g>
   <g id="patch_6">
    <path d="M 65.46142 11.302443 
L 428.99976 11.302443 
" style="fill: none; stroke: #000000; stroke-width: 0.8; stroke-linejoin: miter; stroke-linecap: square"/>
   </g>
   <g id="legend_1">
    <g id="patch_7">
     <path d="M 290.819807 205.453015 
L 408.732712 205.453015 
Q 412.332712 205.453015 412.332712 201.853015 
L 412.332712 28.036566 
Q 412.332712 24.436566 408.732712 24.436566 
L 290.819807 24.436566 
Q 287.219807 24.436566 287.219807 28.036566 
L 287.219807 201.853015 
Q 287.219807 205.453015 290.819807 205.453015 
L 290.819807 205.453015 
z
" style="fill: none; opacity: 0"/>
    </g>
    <g id="line2d_55">
     <path d="M 294.419807 37.936566 
L 312.419807 37.936566 
L 330.419807 37.936566 
" style="fill: none; stroke: #fbf700; stroke-width: 2; stroke-linecap: square"/>
    </g>
    <g id="text_14">
     <!-- NUIG -->
     <g transform="translate(344.819807 44.236566) scale(0.18 -0.18)">
      <defs>
       <path id="CMR17-4e" d="M 1312 4250 
C 1267 4320 1261 4320 1139 4320 
L 326 4320 
L 326 4160 
L 448 4160 
C 704 4160 819 4129 838 4122 
L 838 610 
C 838 451 838 153 326 153 
L 326 -13 
C 474 0 742 0 902 0 
C 1062 0 1331 0 1478 -13 
L 1478 153 
C 966 153 966 451 966 610 
L 966 4033 
C 1011 3995 1011 3982 1056 3919 
L 3430 76 
C 3475 0 3494 0 3526 0 
C 3590 0 3590 19 3590 139 
L 3590 3705 
C 3590 3863 3590 4160 4102 4160 
L 4102 4326 
C 3955 4320 3686 4320 3526 4320 
C 3366 4320 3098 4320 2950 4326 
L 2950 4160 
C 3462 4160 3462 3862 3462 3703 
L 3462 763 
L 1312 4250 
z
" transform="scale(0.015625)"/>
       <path id="CMR17-55" d="M 3456 1433 
C 3456 579 2899 38 2291 38 
C 1965 38 1670 210 1491 477 
C 1286 783 1261 1178 1261 1401 
L 1261 3874 
C 1261 4160 1331 4160 1773 4160 
L 1773 4320 
C 1587 4320 1248 4320 1050 4320 
C 851 4320 512 4320 326 4320 
L 326 4160 
C 768 4160 838 4160 838 3874 
L 838 1433 
C 838 516 1536 -128 2278 -128 
C 3110 -128 3590 719 3590 1344 
L 3590 3766 
C 3590 4122 3917 4160 4102 4160 
L 4102 4326 
C 3955 4320 3686 4320 3526 4320 
C 3366 4320 3091 4320 2944 4326 
L 2944 4160 
C 3456 4160 3456 3861 3456 3702 
L 3456 1433 
z
" transform="scale(0.015625)"/>
       <path id="CMR17-49" d="M 1261 3905 
C 1261 4192 1338 4192 1798 4192 
L 1798 4352 
C 1594 4352 1267 4352 1050 4352 
C 832 4352 506 4352 301 4352 
L 301 4192 
C 762 4192 838 4192 838 3905 
L 838 447 
C 838 160 762 160 301 160 
L 301 0 
C 506 0 832 0 1050 0 
C 1267 0 1594 0 1798 0 
L 1798 160 
C 1338 160 1261 160 1261 447 
L 1261 3905 
z
" transform="scale(0.015625)"/>
       <path id="CMR17-47" d="M 3974 1233 
C 3974 1473 3994 1505 4390 1505 
L 4390 1670 
C 4237 1664 3891 1664 3718 1664 
C 3539 1664 3040 1664 2797 1664 
L 2797 1505 
L 2989 1505 
C 3539 1505 3552 1434 3552 1201 
L 3552 774 
C 3552 63 2720 63 2522 63 
C 1862 63 781 511 781 2160 
C 781 3808 1843 4250 2464 4250 
C 3187 4250 3712 3626 3834 2741 
C 3846 2664 3846 2651 3904 2651 
C 3974 2651 3974 2664 3974 2779 
L 3974 4288 
C 3974 4402 3968 4409 3930 4409 
C 3904 4409 3898 4402 3853 4326 
L 3571 3791 
C 3258 4187 2874 4416 2381 4416 
C 1286 4416 294 3456 294 2148 
C 294 845 1267 -128 2394 -128 
C 2912 -128 3418 56 3616 417 
C 3725 158 3904 -20 3936 -20 
C 3968 -20 3974 -13 3974 100 
L 3974 1233 
z
" transform="scale(0.015625)"/>
      </defs>
      <use xlink:href="#CMR17-4e" transform="scale(0.996264)"/>
      <use xlink:href="#CMR17-55" transform="translate(69.07243 0) scale(0.996264)"/>
      <use xlink:href="#CMR17-49" transform="translate(138.14486 0) scale(0.996264)"/>
      <use xlink:href="#CMR17-47" transform="translate(170.783269 0) scale(0.996264)"/>
     </g>
    </g>
    <g id="line2d_56">
     <path d="M 294.419807 63.02463 
L 312.419807 63.02463 
L 330.419807 63.02463 
" style="fill: none; stroke: #000000; stroke-width: 2; stroke-linecap: square"/>
    </g>
    <g id="text_15">
     <!-- FFCM2 -->
     <g transform="translate(344.819807 69.32463) scale(0.18 -0.18)">
      <defs>
       <path id="CMR17-46" d="M 3482 4325 
L 326 4325 
L 326 4160 
C 768 4160 838 4160 838 3874 
L 838 446 
C 838 160 768 160 326 160 
L 326 0 
C 512 0 870 0 1069 0 
C 1331 0 1638 0 1901 0 
L 1901 160 
L 1760 160 
C 1274 160 1261 223 1261 452 
L 1261 2075 
L 1837 2075 
C 2432 2075 2490 1865 2490 1332 
L 2605 1332 
L 2605 2987 
L 2490 2987 
C 2490 2450 2432 2240 1837 2240 
L 1261 2240 
L 1261 3911 
C 1261 4128 1274 4160 1530 4160 
L 2355 4160 
C 3322 4160 3430 3765 3520 2916 
L 3635 2916 
L 3482 4325 
z
" transform="scale(0.015625)"/>
       <path id="CMR17-4d" d="M 1338 4224 
C 1299 4320 1293 4320 1158 4320 
L 339 4320 
L 339 4160 
C 781 4160 851 4160 851 3875 
L 851 610 
C 851 451 851 153 339 153 
L 339 -13 
C 486 0 755 0 915 0 
C 1075 0 1344 0 1491 -13 
L 1491 153 
C 979 153 979 451 979 610 
L 979 4135 
L 986 4135 
L 2490 89 
C 2515 25 2528 -13 2579 -13 
C 2630 -13 2643 25 2669 89 
L 4186 4166 
L 4192 4166 
L 4192 438 
C 4192 153 4122 153 3680 153 
L 3680 -13 
C 3853 0 4198 0 4384 0 
C 4570 0 4922 0 5094 -13 
L 5094 153 
C 4653 153 4582 153 4582 438 
L 4582 3875 
C 4582 4160 4653 4160 5094 4160 
L 5094 4320 
L 4282 4320 
C 4147 4320 4141 4314 4102 4218 
L 2720 502 
L 1338 4224 
z
" transform="scale(0.015625)"/>
      </defs>
      <use xlink:href="#CMR17-46" transform="scale(0.996264)"/>
      <use xlink:href="#CMR17-46" transform="translate(59.983847 0) scale(0.996264)"/>
      <use xlink:href="#CMR17-43" transform="translate(117.365239 0) scale(0.996264)"/>
      <use xlink:href="#CMR17-4d" transform="translate(183.87512 0) scale(0.996264)"/>
      <use xlink:href="#CMR17-32" transform="translate(268.56206 0) scale(0.996264)"/>
     </g>
    </g>
    <g id="line2d_57">
     <path d="M 294.419807 88.112694 
L 312.419807 88.112694 
L 330.419807 88.112694 
" style="fill: none; stroke: #08ff00; stroke-width: 2; stroke-linecap: square"/>
    </g>
    <g id="text_16">
     <!-- Caltech -->
     <g transform="translate(344.819807 94.412694) scale(0.18 -0.18)">
      <defs>
       <path id="CMR17-6c" d="M 979 4396 
L 218 4326 
L 218 4160 
C 595 4160 653 4122 653 3817 
L 653 426 
C 653 184 627 153 218 153 
L 218 -13 
C 371 0 653 0 813 0 
C 979 0 1261 0 1414 -13 
L 1414 153 
C 1005 153 979 178 979 426 
L 979 4396 
z
" transform="scale(0.015625)"/>
       <path id="CMR17-65" d="M 2438 1472 
C 2464 1498 2464 1511 2464 1576 
C 2464 2238 2118 2816 1389 2816 
C 710 2816 173 2169 173 1383 
C 173 551 781 -64 1459 -64 
C 2176 -64 2458 607 2458 740 
C 2458 784 2419 784 2406 784 
C 2362 784 2355 771 2330 696 
C 2189 265 1837 51 1504 51 
C 1229 51 954 203 781 480 
C 582 803 582 1176 582 1472 
L 2438 1472 
z
M 589 1568 
C 634 2505 1126 2714 1382 2714 
C 1818 2714 2112 2297 2118 1568 
L 589 1568 
z
" transform="scale(0.015625)"/>
       <path id="CMR17-68" d="M 2656 1933 
C 2656 2259 2592 2790 1837 2790 
C 1312 2790 1056 2368 979 2157 
L 973 2157 
L 973 4396 
L 211 4326 
L 211 4160 
C 589 4160 646 4122 646 3817 
L 646 426 
C 646 184 621 153 211 153 
L 211 -13 
C 365 0 646 0 813 0 
C 979 0 1267 0 1421 -13 
L 1421 153 
C 1011 153 986 178 986 428 
L 986 1658 
C 986 2247 1344 2688 1792 2688 
C 2266 2688 2317 2266 2317 1958 
L 2317 428 
C 2317 184 2291 153 1882 153 
L 1882 -13 
C 2035 0 2317 0 2483 0 
C 2650 0 2938 0 3091 -13 
L 3091 153 
C 2682 153 2656 178 2656 428 
L 2656 1933 
z
" transform="scale(0.015625)"/>
      </defs>
      <use xlink:href="#CMR17-43" transform="scale(0.996264)"/>
      <use xlink:href="#CMR17-61" transform="translate(66.509881 0) scale(0.996264)"/>
      <use xlink:href="#CMR17-6c" transform="translate(112.200358 0) scale(0.996264)"/>
      <use xlink:href="#CMR17-74" transform="translate(137.071416 0) scale(0.996264)"/>
      <use xlink:href="#CMR17-65" transform="translate(172.352184 0) scale(0.996264)"/>
      <use xlink:href="#CMR17-63" transform="translate(212.837844 0) scale(0.996264)"/>
      <use xlink:href="#CMR17-68" transform="translate(250.721051 0) scale(0.996264)"/>
     </g>
    </g>
    <g id="line2d_58">
     <path d="M 294.419807 113.200759 
L 312.419807 113.200759 
L 330.419807 113.200759 
" style="fill: none; stroke: #00fff3; stroke-width: 2; stroke-linecap: square"/>
    </g>
    <g id="text_17">
     <!-- KAUST -->
     <g transform="translate(344.819807 119.500759) scale(0.18 -0.18)">
      <defs>
       <path id="CMR17-4b" d="M 2362 2675 
L 3469 3782 
C 3699 4006 3942 4186 4301 4186 
L 4301 4352 
C 4173 4352 4013 4352 3885 4352 
C 3712 4352 3411 4352 3245 4358 
L 3245 4192 
C 3411 4180 3437 4065 3437 4019 
C 3437 3975 3411 3905 3386 3867 
L 1261 1738 
L 1261 3900 
C 1261 4186 1331 4186 1773 4186 
L 1773 4352 
C 1587 4352 1248 4352 1050 4352 
C 851 4352 512 4352 326 4352 
L 326 4186 
C 768 4186 838 4186 838 3899 
L 838 446 
C 838 160 768 160 326 160 
L 326 0 
C 512 0 851 0 1050 0 
C 1248 0 1587 0 1773 0 
L 1773 160 
C 1331 160 1261 160 1261 447 
L 1261 1579 
L 2080 2390 
L 3290 537 
C 3328 473 3373 390 3373 326 
C 3373 160 3194 160 3110 160 
L 3110 0 
C 3315 0 3610 0 3821 0 
C 3974 0 4237 0 4384 -6 
L 4384 160 
C 4077 160 3981 198 3789 493 
L 2362 2675 
z
" transform="scale(0.015625)"/>
       <path id="CMR17-41" d="M 2323 4378 
C 2291 4461 2278 4480 2214 4480 
C 2150 4480 2138 4461 2106 4378 
L 749 566 
C 627 223 371 153 147 153 
L 147 -13 
C 262 0 518 0 640 0 
C 800 0 1056 0 1210 -13 
L 1210 153 
C 909 153 864 361 864 439 
C 864 497 877 530 890 569 
L 1229 1536 
L 2906 1536 
L 3290 442 
C 3322 365 3322 352 3322 327 
C 3322 153 3046 153 2925 153 
L 2925 0 
C 3110 0 3443 0 3642 0 
C 3808 0 4128 0 4282 -13 
L 4282 153 
C 3942 153 3827 153 3744 387 
L 2323 4378 
z
M 2067 3893 
L 2848 1702 
L 1286 1702 
L 2067 3893 
z
" transform="scale(0.015625)"/>
       <path id="CMR17-53" d="M 2803 4290 
C 2803 4404 2797 4411 2758 4411 
C 2720 4411 2707 4385 2682 4328 
L 2490 3907 
C 2246 4257 1875 4416 1472 4416 
C 819 4416 294 3901 294 3253 
C 294 3056 339 2776 557 2510 
C 794 2218 1018 2167 1530 2033 
C 1722 1982 2042 1899 2106 1874 
C 2470 1722 2662 1341 2662 985 
C 2662 527 2336 38 1779 38 
C 1094 38 454 419 410 1311 
C 403 1413 397 1419 352 1419 
C 301 1419 294 1413 294 1285 
L 294 -1 
C 294 -115 301 -122 339 -122 
C 384 -122 397 -90 486 108 
C 493 127 493 140 614 381 
C 934 -39 1472 -128 1779 -128 
C 2477 -128 2970 451 2970 1124 
C 2970 1454 2848 1708 2778 1823 
C 2509 2230 2221 2306 1914 2382 
C 1869 2402 1856 2402 1498 2490 
C 1152 2579 1005 2624 845 2796 
C 666 2992 602 3196 602 3399 
C 602 3812 934 4263 1478 4263 
C 2157 4263 2579 3786 2675 2993 
C 2694 2878 2701 2872 2746 2872 
C 2803 2872 2803 2891 2803 2999 
L 2803 4290 
z
" transform="scale(0.015625)"/>
       <path id="CMR17-54" d="M 3981 4326 
L 288 4326 
L 179 2918 
L 294 2918 
C 378 3976 467 4160 1453 4160 
C 1568 4160 1754 4160 1805 4154 
C 1926 4135 1926 4058 1926 3912 
L 1926 459 
C 1926 230 1907 160 1376 160 
L 1197 160 
L 1197 0 
C 1504 0 1824 0 2138 0 
C 2451 0 2771 0 3078 0 
L 3078 160 
L 2899 160 
C 2368 160 2349 230 2349 459 
L 2349 3912 
C 2349 4052 2349 4129 2464 4154 
C 2515 4160 2701 4160 2816 4160 
C 3795 4160 3891 3976 3974 2918 
L 4090 2918 
L 3981 4326 
z
" transform="scale(0.015625)"/>
      </defs>
      <use xlink:href="#CMR17-4b" transform="scale(0.996264)"/>
      <use xlink:href="#CMR17-41" transform="translate(71.674777 0) scale(0.996264)"/>
      <use xlink:href="#CMR17-55" transform="translate(138.144753 0) scale(0.996264)"/>
      <use xlink:href="#CMR17-53" transform="translate(207.217183 0) scale(0.996264)"/>
      <use xlink:href="#CMR17-54" transform="translate(258.112553 0) scale(0.996264)"/>
     </g>
    </g>
    <g id="line2d_59">
     <path d="M 294.419807 138.288823 
L 312.419807 138.288823 
L 330.419807 138.288823 
" style="fill: none; stroke: #0010ff; stroke-width: 2; stroke-linecap: square"/>
    </g>
    <g id="text_18">
     <!-- ABF -->
     <g transform="translate(344.819807 144.588823) scale(0.18 -0.18)">
      <defs>
       <path id="CMR17-42" d="M 333 4352 
L 333 4186 
C 774 4186 845 4186 845 3900 
L 845 452 
C 845 166 774 166 333 166 
L 333 0 
L 2534 0 
C 3354 0 3885 583 3885 1164 
C 3885 1741 3360 2233 2675 2233 
C 3290 2356 3718 2771 3718 3264 
C 3718 3802 3194 4352 2368 4352 
L 333 4352 
z
M 1248 2304 
L 1248 3937 
C 1248 4155 1261 4186 1517 4186 
L 2336 4186 
C 2970 4186 3251 3674 3251 3277 
C 3251 2791 2861 2304 2170 2304 
L 1248 2304 
z
M 1517 166 
C 1261 166 1248 197 1248 413 
L 1248 2202 
L 2432 2202 
C 3091 2202 3411 1625 3411 1162 
C 3411 699 3046 166 2349 166 
L 1517 166 
z
" transform="scale(0.015625)"/>
      </defs>
      <use xlink:href="#CMR17-41" transform="scale(0.996264)"/>
      <use xlink:href="#CMR17-42" transform="translate(69.07243 0) scale(0.996264)"/>
      <use xlink:href="#CMR17-46" transform="translate(134.261184 0) scale(0.996264)"/>
     </g>
    </g>
    <g id="line2d_60">
     <path d="M 294.419807 163.376887 
L 312.419807 163.376887 
L 330.419807 163.376887 
" style="fill: none; stroke: #eb00ff; stroke-width: 2; stroke-linecap: square"/>
    </g>
    <g id="text_19">
     <!-- ITV -->
     <g transform="translate(344.819807 169.676887) scale(0.18 -0.18)">
      <defs>
       <path id="CMR17-56" d="M 3776 3745 
C 3834 3886 3936 4160 4365 4160 
L 4365 4332 
C 4218 4319 4051 4319 3891 4319 
C 3738 4319 3475 4319 3328 4332 
L 3328 4160 
C 3648 4160 3661 3936 3661 3898 
C 3661 3827 3642 3783 3622 3732 
L 2362 446 
L 1043 3886 
C 1024 3931 1011 3963 1011 3994 
C 1011 4160 1267 4160 1402 4160 
L 1402 4319 
C 1197 4319 896 4319 685 4319 
C 518 4319 218 4319 64 4332 
L 64 4160 
C 435 4160 506 4135 582 3931 
L 2106 -26 
C 2138 -115 2144 -128 2214 -128 
C 2285 -128 2291 -115 2323 -26 
L 3776 3745 
z
" transform="scale(0.015625)"/>
      </defs>
      <use xlink:href="#CMR17-49" transform="scale(0.996264)"/>
      <use xlink:href="#CMR17-54" transform="translate(32.638409 0) scale(0.996264)"/>
      <use xlink:href="#CMR17-56" transform="translate(99.14829 0) scale(0.996264)"/>
     </g>
    </g>
    <g id="line2d_61">
     <path d="M 294.419807 188.464951 
L 312.419807 188.464951 
L 330.419807 188.464951 
" style="fill: none; stroke: #ff0018; stroke-width: 2; stroke-linecap: square"/>
    </g>
    <g id="text_20">
     <!-- CRECK -->
     <g transform="translate(344.819807 194.764951) scale(0.18 -0.18)">
      <defs>
       <path id="CMR17-52" d="M 2509 2146 
C 3117 2268 3629 2676 3629 3186 
C 3629 3785 2950 4326 2054 4326 
L 333 4326 
L 333 4160 
C 774 4160 845 4160 845 3873 
L 845 415 
C 845 128 774 128 333 128 
L 333 -26 
C 518 -26 851 -26 1050 -26 
C 1248 -26 1581 -26 1766 -26 
L 1766 128 
C 1325 128 1254 128 1254 417 
L 1254 2112 
L 2003 2112 
C 2368 2112 2573 1964 2662 1881 
C 2918 1632 2918 1459 2918 1024 
C 2918 595 2918 377 3110 160 
C 3354 -102 3680 -128 3821 -128 
C 4294 -128 4365 396 4365 503 
C 4365 540 4365 585 4307 585 
C 4256 585 4250 547 4250 522 
C 4218 112 4032 -26 3834 -26 
C 3482 -26 3443 375 3405 764 
C 3386 898 3373 993 3360 1133 
C 3322 1452 3270 1917 2509 2146 
z
M 1984 2214 
L 1254 2214 
L 1254 3913 
C 1254 4129 1267 4160 1523 4160 
L 1990 4160 
C 2522 4160 3142 3977 3142 3190 
C 3142 2372 2464 2214 1984 2214 
z
" transform="scale(0.015625)"/>
       <path id="CMR17-45" d="M 3885 1615 
L 3770 1615 
C 3629 676 3546 166 2419 166 
L 1530 166 
C 1274 166 1261 197 1261 414 
L 1261 2176 
L 1862 2176 
C 2464 2176 2522 1960 2522 1430 
L 2637 1430 
L 2637 3081 
L 2522 3081 
C 2522 2557 2464 2342 1862 2342 
L 1261 2342 
L 1261 3913 
C 1261 4128 1274 4160 1530 4160 
L 2406 4160 
C 3398 4160 3514 3769 3603 2929 
L 3718 2929 
L 3565 4325 
L 326 4325 
L 326 4160 
C 768 4160 838 4160 838 3874 
L 838 451 
C 838 166 768 166 326 166 
L 326 0 
L 3654 0 
L 3885 1615 
z
" transform="scale(0.015625)"/>
      </defs>
      <use xlink:href="#CMR17-43" transform="scale(0.996264)"/>
      <use xlink:href="#CMR17-52" transform="translate(66.509881 0) scale(0.996264)"/>
      <use xlink:href="#CMR17-45" transform="translate(134.300983 0) scale(0.996264)"/>
      <use xlink:href="#CMR17-43" transform="translate(196.887283 0) scale(0.996264)"/>
      <use xlink:href="#CMR17-4b" transform="translate(263.397164 0) scale(0.996264)"/>
     </g>
    </g>
   </g>
  </g>
  <g id="axes_2">
   <g id="patch_8">
    <path d="M 120.96 190.08 
L 272.16 190.08 
L 272.16 31.68 
L 120.96 31.68 
z
" style="fill: #ffffff"/>
   </g>
   <g id="matplotlib.axis_3">
    <g id="xtick_27">
     <g id="line2d_62">
      <g>
       <use xlink:href="#m3ebd76c0d4" x="120.96" y="190.08" style="stroke: #000000; stroke-width: 0.8"/>
      </g>
     </g>
     <g id="text_21">
      <!-- $\mathdefault{10^{-3}}$ -->
      <g transform="translate(107.720601 206.765876) scale(0.14 -0.14)">
       <defs>
        <path id="CMSY10-0" d="M 4218 1472 
C 4326 1472 4442 1472 4442 1600 
C 4442 1728 4326 1728 4218 1728 
L 755 1728 
C 646 1728 531 1728 531 1600 
C 531 1472 646 1472 755 1472 
L 4218 1472 
z
" transform="scale(0.015625)"/>
       </defs>
       <use xlink:href="#CMR17-31" transform="scale(0.996264)"/>
       <use xlink:href="#CMR17-30" transform="translate(45.690477 0) scale(0.996264)"/>
       <use xlink:href="#CMSY10-0" transform="translate(91.380954 36.153639) scale(0.697382)"/>
       <use xlink:href="#CMR17-33" transform="translate(145.621947 36.153639) scale(0.697382)"/>
      </g>
     </g>
    </g>
    <g id="xtick_28">
     <g id="line2d_63">
      <g>
       <use xlink:href="#m3ebd76c0d4" x="171.36" y="190.08" style="stroke: #000000; stroke-width: 0.8"/>
      </g>
     </g>
     <g id="text_22">
      <!-- $\mathdefault{10^{-2}}$ -->
      <g transform="translate(158.120601 206.765876) scale(0.14 -0.14)">
       <use xlink:href="#CMR17-31" transform="scale(0.996264)"/>
       <use xlink:href="#CMR17-30" transform="translate(45.690477 0) scale(0.996264)"/>
       <use xlink:href="#CMSY10-0" transform="translate(91.380954 36.153639) scale(0.697382)"/>
       <use xlink:href="#CMR17-32" transform="translate(145.621947 36.153639) scale(0.697382)"/>
      </g>
     </g>
    </g>
    <g id="xtick_29">
     <g id="line2d_64">
      <g>
       <use xlink:href="#m3ebd76c0d4" x="221.76" y="190.08" style="stroke: #000000; stroke-width: 0.8"/>
      </g>
     </g>
     <g id="text_23">
      <!-- $\mathdefault{10^{-1}}$ -->
      <g transform="translate(208.520601 206.765876) scale(0.14 -0.14)">
       <use xlink:href="#CMR17-31" transform="scale(0.996264)"/>
       <use xlink:href="#CMR17-30" transform="translate(45.690477 0) scale(0.996264)"/>
       <use xlink:href="#CMSY10-0" transform="translate(91.380954 36.153639) scale(0.697382)"/>
       <use xlink:href="#CMR17-31" transform="translate(145.621947 36.153639) scale(0.697382)"/>
      </g>
     </g>
    </g>
    <g id="xtick_30">
     <g id="line2d_65">
      <g>
       <use xlink:href="#m3ebd76c0d4" x="272.16" y="190.08" style="stroke: #000000; stroke-width: 0.8"/>
      </g>
     </g>
     <g id="text_24">
      <!-- $\mathdefault{10^{0}}$ -->
      <g transform="translate(262.822898 206.765876) scale(0.14 -0.14)">
       <use xlink:href="#CMR17-31" transform="scale(0.996264)"/>
       <use xlink:href="#CMR17-30" transform="translate(45.690477 0) scale(0.996264)"/>
       <use xlink:href="#CMR17-30" transform="translate(91.380954 36.153639) scale(0.697382)"/>
      </g>
     </g>
    </g>
    <g id="xtick_31">
     <g id="line2d_66">
      <g>
       <use xlink:href="#m309e4dd9eb" x="136.131912" y="190.08" style="stroke: #000000; stroke-width: 0.6"/>
      </g>
     </g>
    </g>
    <g id="xtick_32">
     <g id="line2d_67">
      <g>
       <use xlink:href="#m309e4dd9eb" x="145.006911" y="190.08" style="stroke: #000000; stroke-width: 0.6"/>
      </g>
     </g>
    </g>
    <g id="xtick_33">
     <g id="line2d_68">
      <g>
       <use xlink:href="#m309e4dd9eb" x="151.303824" y="190.08" style="stroke: #000000; stroke-width: 0.6"/>
      </g>
     </g>
    </g>
    <g id="xtick_34">
     <g id="line2d_69">
      <g>
       <use xlink:href="#m309e4dd9eb" x="156.188088" y="190.08" style="stroke: #000000; stroke-width: 0.6"/>
      </g>
     </g>
    </g>
    <g id="xtick_35">
     <g id="line2d_70">
      <g>
       <use xlink:href="#m309e4dd9eb" x="160.178823" y="190.08" style="stroke: #000000; stroke-width: 0.6"/>
      </g>
     </g>
    </g>
    <g id="xtick_36">
     <g id="line2d_71">
      <g>
       <use xlink:href="#m309e4dd9eb" x="163.552941" y="190.08" style="stroke: #000000; stroke-width: 0.6"/>
      </g>
     </g>
    </g>
    <g id="xtick_37">
     <g id="line2d_72">
      <g>
       <use xlink:href="#m309e4dd9eb" x="166.475735" y="190.08" style="stroke: #000000; stroke-width: 0.6"/>
      </g>
     </g>
    </g>
    <g id="xtick_38">
     <g id="line2d_73">
      <g>
       <use xlink:href="#m309e4dd9eb" x="169.053822" y="190.08" style="stroke: #000000; stroke-width: 0.6"/>
      </g>
     </g>
    </g>
    <g id="xtick_39">
     <g id="line2d_74">
      <g>
       <use xlink:href="#m309e4dd9eb" x="186.531912" y="190.08" style="stroke: #000000; stroke-width: 0.6"/>
      </g>
     </g>
    </g>
    <g id="xtick_40">
     <g id="line2d_75">
      <g>
       <use xlink:href="#m309e4dd9eb" x="195.406911" y="190.08" style="stroke: #000000; stroke-width: 0.6"/>
      </g>
     </g>
    </g>
    <g id="xtick_41">
     <g id="line2d_76">
      <g>
       <use xlink:href="#m309e4dd9eb" x="201.703824" y="190.08" style="stroke: #000000; stroke-width: 0.6"/>
      </g>
     </g>
    </g>
    <g id="xtick_42">
     <g id="line2d_77">
      <g>
       <use xlink:href="#m309e4dd9eb" x="206.588088" y="190.08" style="stroke: #000000; stroke-width: 0.6"/>
      </g>
     </g>
    </g>
    <g id="xtick_43">
     <g id="line2d_78">
      <g>
       <use xlink:href="#m309e4dd9eb" x="210.578823" y="190.08" style="stroke: #000000; stroke-width: 0.6"/>
      </g>
     </g>
    </g>
    <g id="xtick_44">
     <g id="line2d_79">
      <g>
       <use xlink:href="#m309e4dd9eb" x="213.952941" y="190.08" style="stroke: #000000; stroke-width: 0.6"/>
      </g>
     </g>
    </g>
    <g id="xtick_45">
     <g id="line2d_80">
      <g>
       <use xlink:href="#m309e4dd9eb" x="216.875735" y="190.08" style="stroke: #000000; stroke-width: 0.6"/>
      </g>
     </g>
    </g>
    <g id="xtick_46">
     <g id="line2d_81">
      <g>
       <use xlink:href="#m309e4dd9eb" x="219.453822" y="190.08" style="stroke: #000000; stroke-width: 0.6"/>
      </g>
     </g>
    </g>
    <g id="xtick_47">
     <g id="line2d_82">
      <g>
       <use xlink:href="#m309e4dd9eb" x="236.931912" y="190.08" style="stroke: #000000; stroke-width: 0.6"/>
      </g>
     </g>
    </g>
    <g id="xtick_48">
     <g id="line2d_83">
      <g>
       <use xlink:href="#m309e4dd9eb" x="245.806911" y="190.08" style="stroke: #000000; stroke-width: 0.6"/>
      </g>
     </g>
    </g>
    <g id="xtick_49">
     <g id="line2d_84">
      <g>
       <use xlink:href="#m309e4dd9eb" x="252.103824" y="190.08" style="stroke: #000000; stroke-width: 0.6"/>
      </g>
     </g>
    </g>
    <g id="xtick_50">
     <g id="line2d_85">
      <g>
       <use xlink:href="#m309e4dd9eb" x="256.988088" y="190.08" style="stroke: #000000; stroke-width: 0.6"/>
      </g>
     </g>
    </g>
    <g id="xtick_51">
     <g id="line2d_86">
      <g>
       <use xlink:href="#m309e4dd9eb" x="260.978823" y="190.08" style="stroke: #000000; stroke-width: 0.6"/>
      </g>
     </g>
    </g>
    <g id="xtick_52">
     <g id="line2d_87">
      <g>
       <use xlink:href="#m309e4dd9eb" x="264.352941" y="190.08" style="stroke: #000000; stroke-width: 0.6"/>
      </g>
     </g>
    </g>
    <g id="xtick_53">
     <g id="line2d_88">
      <g>
       <use xlink:href="#m309e4dd9eb" x="267.275735" y="190.08" style="stroke: #000000; stroke-width: 0.6"/>
      </g>
     </g>
    </g>
    <g id="xtick_54">
     <g id="line2d_89">
      <g>
       <use xlink:href="#m309e4dd9eb" x="269.853822" y="190.08" style="stroke: #000000; stroke-width: 0.6"/>
      </g>
     </g>
    </g>
   </g>
   <g id="matplotlib.axis_4">
    <g id="ytick_22">
     <g id="line2d_90">
      <g>
       <use xlink:href="#md3f4479865" x="120.96" y="190.08" style="stroke: #000000; stroke-width: 0.8"/>
      </g>
     </g>
     <g id="text_25">
      <!-- $\mathdefault{0.2}$ -->
      <g transform="translate(96.509418 194.922938) scale(0.14 -0.14)">
       <use xlink:href="#CMR17-30" transform="scale(0.996264)"/>
       <use xlink:href="#CMMI12-3a" transform="translate(45.690477 0) scale(0.996264)"/>
       <use xlink:href="#CMR17-32" transform="translate(72.787654 0) scale(0.996264)"/>
      </g>
     </g>
    </g>
    <g id="ytick_23">
     <g id="line2d_91">
      <g>
       <use xlink:href="#md3f4479865" x="120.96" y="150.48" style="stroke: #000000; stroke-width: 0.8"/>
      </g>
     </g>
     <g id="text_26">
      <!-- $\mathdefault{0.4}$ -->
      <g transform="translate(96.509418 155.322938) scale(0.14 -0.14)">
       <use xlink:href="#CMR17-30" transform="scale(0.996264)"/>
       <use xlink:href="#CMMI12-3a" transform="translate(45.690477 0) scale(0.996264)"/>
       <use xlink:href="#CMR17-34" transform="translate(72.787654 0) scale(0.996264)"/>
      </g>
     </g>
    </g>
    <g id="ytick_24">
     <g id="line2d_92">
      <g>
       <use xlink:href="#md3f4479865" x="120.96" y="110.88" style="stroke: #000000; stroke-width: 0.8"/>
      </g>
     </g>
     <g id="text_27">
      <!-- $\mathdefault{0.6}$ -->
      <g transform="translate(96.509418 115.722938) scale(0.14 -0.14)">
       <use xlink:href="#CMR17-30" transform="scale(0.996264)"/>
       <use xlink:href="#CMMI12-3a" transform="translate(45.690477 0) scale(0.996264)"/>
       <use xlink:href="#CMR17-36" transform="translate(72.787654 0) scale(0.996264)"/>
      </g>
     </g>
    </g>
    <g id="ytick_25">
     <g id="line2d_93">
      <g>
       <use xlink:href="#md3f4479865" x="120.96" y="71.28" style="stroke: #000000; stroke-width: 0.8"/>
      </g>
     </g>
     <g id="text_28">
      <!-- $\mathdefault{0.8}$ -->
      <g transform="translate(96.509418 76.122938) scale(0.14 -0.14)">
       <use xlink:href="#CMR17-30" transform="scale(0.996264)"/>
       <use xlink:href="#CMMI12-3a" transform="translate(45.690477 0) scale(0.996264)"/>
       <use xlink:href="#CMR17-38" transform="translate(72.787654 0) scale(0.996264)"/>
      </g>
     </g>
    </g>
    <g id="ytick_26">
     <g id="line2d_94">
      <g>
       <use xlink:href="#md3f4479865" x="120.96" y="31.68" style="stroke: #000000; stroke-width: 0.8"/>
      </g>
     </g>
     <g id="text_29">
      <!-- $\mathdefault{1.0}$ -->
      <g transform="translate(96.509418 36.522938) scale(0.14 -0.14)">
       <use xlink:href="#CMR17-31" transform="scale(0.996264)"/>
       <use xlink:href="#CMMI12-3a" transform="translate(45.690477 0) scale(0.996264)"/>
       <use xlink:href="#CMR17-30" transform="translate(72.787654 0) scale(0.996264)"/>
      </g>
     </g>
    </g>
    <g id="ytick_27">
     <g id="line2d_95">
      <g>
       <use xlink:href="#mb67691a757" x="120.96" y="182.16" style="stroke: #000000; stroke-width: 0.6"/>
      </g>
     </g>
    </g>
    <g id="ytick_28">
     <g id="line2d_96">
      <g>
       <use xlink:href="#mb67691a757" x="120.96" y="174.24" style="stroke: #000000; stroke-width: 0.6"/>
      </g>
     </g>
    </g>
    <g id="ytick_29">
     <g id="line2d_97">
      <g>
       <use xlink:href="#mb67691a757" x="120.96" y="166.32" style="stroke: #000000; stroke-width: 0.6"/>
      </g>
     </g>
    </g>
    <g id="ytick_30">
     <g id="line2d_98">
      <g>
       <use xlink:href="#mb67691a757" x="120.96" y="158.4" style="stroke: #000000; stroke-width: 0.6"/>
      </g>
     </g>
    </g>
    <g id="ytick_31">
     <g id="line2d_99">
      <g>
       <use xlink:href="#mb67691a757" x="120.96" y="142.56" style="stroke: #000000; stroke-width: 0.6"/>
      </g>
     </g>
    </g>
    <g id="ytick_32">
     <g id="line2d_100">
      <g>
       <use xlink:href="#mb67691a757" x="120.96" y="134.64" style="stroke: #000000; stroke-width: 0.6"/>
      </g>
     </g>
    </g>
    <g id="ytick_33">
     <g id="line2d_101">
      <g>
       <use xlink:href="#mb67691a757" x="120.96" y="126.72" style="stroke: #000000; stroke-width: 0.6"/>
      </g>
     </g>
    </g>
    <g id="ytick_34">
     <g id="line2d_102">
      <g>
       <use xlink:href="#mb67691a757" x="120.96" y="118.8" style="stroke: #000000; stroke-width: 0.6"/>
      </g>
     </g>
    </g>
    <g id="ytick_35">
     <g id="line2d_103">
      <g>
       <use xlink:href="#mb67691a757" x="120.96" y="102.96" style="stroke: #000000; stroke-width: 0.6"/>
      </g>
     </g>
    </g>
    <g id="ytick_36">
     <g id="line2d_104">
      <g>
       <use xlink:href="#mb67691a757" x="120.96" y="95.04" style="stroke: #000000; stroke-width: 0.6"/>
      </g>
     </g>
    </g>
    <g id="ytick_37">
     <g id="line2d_105">
      <g>
       <use xlink:href="#mb67691a757" x="120.96" y="87.12" style="stroke: #000000; stroke-width: 0.6"/>
      </g>
     </g>
    </g>
    <g id="ytick_38">
     <g id="line2d_106">
      <g>
       <use xlink:href="#mb67691a757" x="120.96" y="79.2" style="stroke: #000000; stroke-width: 0.6"/>
      </g>
     </g>
    </g>
    <g id="ytick_39">
     <g id="line2d_107">
      <g>
       <use xlink:href="#mb67691a757" x="120.96" y="63.36" style="stroke: #000000; stroke-width: 0.6"/>
      </g>
     </g>
    </g>
    <g id="ytick_40">
     <g id="line2d_108">
      <g>
       <use xlink:href="#mb67691a757" x="120.96" y="55.44" style="stroke: #000000; stroke-width: 0.6"/>
      </g>
     </g>
    </g>
    <g id="ytick_41">
     <g id="line2d_109">
      <g>
       <use xlink:href="#mb67691a757" x="120.96" y="47.52" style="stroke: #000000; stroke-width: 0.6"/>
      </g>
     </g>
    </g>
    <g id="ytick_42">
     <g id="line2d_110">
      <g>
       <use xlink:href="#mb67691a757" x="120.96" y="39.6" style="stroke: #000000; stroke-width: 0.6"/>
      </g>
     </g>
    </g>
   </g>
   <g id="line2d_111">
    <path d="M -1 31.684838 
L 63.399925 31.809922 
L 83.039321 32.047269 
L 96.501291 32.395026 
L 108.227167 32.927678 
L 115.942748 33.466215 
L 122.778816 34.127348 
L 129.008404 34.937473 
L 135.373268 36.04656 
L 138.534981 36.736502 
L 141.779968 37.566375 
L 144.605412 38.409963 
L 147.648789 39.471559 
L 150.320206 40.561423 
L 153.093379 41.882672 
L 155.899388 43.458456 
L 158.386209 45.097646 
L 160.639674 46.817267 
L 162.701367 48.61732 
L 164.585474 50.477922 
L 166.414203 52.503693 
L 168.188546 54.696405 
L 169.829778 56.939411 
L 171.488773 59.42884 
L 174.700347 64.910671 
L 177.730439 70.881627 
L 180.523308 77.00781 
L 184.433739 86.334321 
L 193.062238 107.542671 
L 196.604756 115.561856 
L 200.231829 123.066918 
L 202.71646 127.785324 
L 206.38472 134.163355 
L 209.742278 139.449012 
L 213.020794 144.165474 
L 216.66241 148.957319 
L 220.90815 154.037854 
L 224.769978 158.263609 
L 228.548201 162.099425 
L 233.790171 167.035273 
L 239.225007 171.793088 
L 244.668049 176.281374 
L 251.107299 181.301455 
L 256.861557 185.548277 
L 263.899817 190.447013 
L 270.802033 194.937745 
L 277.362871 198.918617 
L 283.03971 202.135789 
L 288.880617 205.224505 
L 294.637432 208.04765 
L 301.306493 211.042166 
L 307.331415 213.491715 
L 308.192078 213.821789 
L 308.192078 213.821789 
" clip-path="url(#p2f0a8ba294)" style="fill: none; stroke: #fbf700; stroke-width: 2; stroke-linecap: square"/>
   </g>
   <g id="line2d_112">
    <path d="M -1 31.684503 
L 62.3207 31.789017 
L 84.44404 32.034869 
L 98.095904 32.380377 
L 110.080457 32.920619 
L 119.783358 33.631573 
L 126.629468 34.360322 
L 132.573669 35.21206 
L 137.934002 36.220346 
L 143.473248 37.594208 
L 145.972363 38.36005 
L 148.54711 39.269305 
L 151.145165 40.335191 
L 153.467303 41.439303 
L 155.713972 42.669985 
L 157.88482 44.038645 
L 159.859661 45.463189 
L 161.744137 47.006989 
L 163.546519 48.6759 
L 165.211712 50.406066 
L 166.780177 52.219413 
L 169.652451 56.0583 
L 172.430503 60.48469 
L 174.921584 65.104943 
L 177.036796 69.525814 
L 179.417547 75.029004 
L 182.79378 83.651806 
L 187.698465 97.137497 
L 191.715092 108.029475 
L 194.579267 115.247649 
L 197.405187 121.75376 
L 200.265217 127.688779 
L 203.167798 133.094521 
L 206.021652 137.888857 
L 208.832456 142.194947 
L 211.816692 146.401965 
L 214.987401 150.542942 
L 218.376216 154.670942 
L 222.980587 159.893466 
L 227.583197 164.764174 
L 232.284433 169.44825 
L 238.187399 174.97844 
L 244.119845 180.187017 
L 250.41372 185.359239 
L 256.414895 189.967431 
L 261.599402 193.701731 
L 268.006131 198.007075 
L 274.373779 201.953059 
L 279.893225 205.10864 
L 285.118082 207.872168 
L 290.311435 210.406261 
L 295.641267 212.789607 
L 300.935753 214.943007 
L 307.050459 217.170472 
L 307.922022 217.465757 
L 307.922022 217.465757 
" clip-path="url(#p2f0a8ba294)" style="fill: none; stroke: #000000; stroke-width: 2; stroke-linecap: square"/>
   </g>
   <g id="line2d_113">
    <path d="M -1 31.686269 
L 57.536467 31.791081 
L 77.900146 32.016087 
L 92.371712 32.392505 
L 102.116896 32.831809 
L 109.639764 33.330467 
L 118.190375 34.145706 
L 124.553729 34.996278 
L 130.703774 36.099776 
L 136.097012 37.385125 
L 139.575892 38.427915 
L 142.576929 39.502495 
L 145.21568 40.61355 
L 148.082081 42.037916 
L 150.616207 43.528284 
L 152.887152 45.087766 
L 154.665535 46.483347 
L 156.310224 47.930802 
L 157.839922 49.429226 
L 159.586889 51.341123 
L 161.204674 53.323446 
L 162.711073 55.370683 
L 164.336452 57.81614 
L 165.849433 60.328698 
L 168.696214 65.714645 
L 171.305942 71.433137 
L 173.842003 77.68323 
L 177.159094 86.731357 
L 182.568468 102.597417 
L 186.54855 113.987417 
L 189.640507 122.099341 
L 192.603898 129.088954 
L 194.608825 133.374194 
L 196.624695 137.346125 
L 199.742912 142.904434 
L 202.647979 147.549539 
L 205.629007 151.892525 
L 208.72889 156.05168 
L 212.235098 160.415373 
L 215.825817 164.59234 
L 220.483704 169.6684 
L 224.897248 174.192513 
L 230.796695 179.881739 
L 236.242241 184.81286 
L 241.234422 189.080079 
L 246.228205 193.109916 
L 252.164163 197.586445 
L 256.970378 200.95664 
L 262.16547 204.338747 
L 267.721983 207.652994 
L 272.992405 210.506995 
L 278.035044 212.977176 
L 283.464814 215.359987 
L 288.938126 217.483504 
L 294.138366 219.256857 
L 299.443963 220.837899 
L 304.975377 222.260629 
L 308.154406 222.982309 
L 308.154406 222.982309 
" clip-path="url(#p2f0a8ba294)" style="fill: none; stroke: #08ff00; stroke-width: 2; stroke-linecap: square"/>
   </g>
   <g id="line2d_114">
    <path d="M -1 31.686031 
L 57.848924 31.78831 
L 78.173437 32.006962 
L 91.666712 32.339341 
L 103.089031 32.837375 
L 110.376873 33.317897 
L 115.950779 33.806937 
L 123.64003 34.717774 
L 130.246509 35.800343 
L 135.700113 36.985169 
L 138.494153 37.725647 
L 141.412404 38.619178 
L 143.986957 39.52875 
L 148.394278 41.414748 
L 151.002697 42.774557 
L 154.60888 45.03628 
L 156.974479 46.813421 
L 159.109168 48.656145 
L 161.054045 50.561265 
L 162.855073 52.541325 
L 164.51911 54.573768 
L 166.06553 56.651437 
L 167.837703 59.270999 
L 169.47708 61.932497 
L 172.60034 67.659154 
L 175.484162 73.704264 
L 178.810653 81.494532 
L 182.002645 89.617027 
L 187.96697 105.648825 
L 193.866666 121.322455 
L 197.802178 131.096825 
L 200.559101 137.471777 
L 203.594338 143.983477 
L 206.736663 150.151624 
L 209.733972 155.51078 
L 212.912224 160.679712 
L 216.136749 165.445511 
L 219.241429 169.641836 
L 222.759853 174.005232 
L 226.114244 177.841611 
L 230.261742 182.227548 
L 234.746659 186.608872 
L 239.418122 190.848575 
L 245.02139 195.574164 
L 250.339586 199.745357 
L 255.243682 203.341995 
L 259.977289 206.591141 
L 265.740579 210.247097 
L 270.299774 212.897871 
L 275.127786 215.463894 
L 279.954914 217.774726 
L 284.697884 219.793266 
L 288.734526 221.314238 
L 294.111206 223.063473 
L 299.082874 224.410231 
L 303.621104 225.426755 
L 307.862178 226.208463 
L 307.862178 226.208463 
" clip-path="url(#p2f0a8ba294)" style="fill: none; stroke: #00fff3; stroke-width: 2; stroke-linecap: square"/>
   </g>
   <g id="line2d_115">
    <path d="M -1 31.685906 
L 59.266613 31.797007 
L 80.864626 32.057225 
L 94.006904 32.421461 
L 103.59667 32.865769 
L 111.034326 33.368844 
L 116.383306 33.849139 
L 122.502395 34.56016 
L 128.339488 35.44934 
L 133.563408 36.477175 
L 138.602834 37.745794 
L 143.534141 39.341879 
L 145.761495 40.210933 
L 148.190721 41.288347 
L 150.739619 42.590232 
L 153.022417 43.93228 
L 155.234012 45.418863 
L 157.373563 47.059481 
L 159.322473 48.752158 
L 161.309219 50.697269 
L 163.310503 52.905967 
L 165.144038 55.169866 
L 166.936207 57.6207 
L 168.685374 60.2502 
L 171.789409 65.505045 
L 174.444592 70.574684 
L 177.098335 76.099359 
L 180.842934 84.436393 
L 187.612303 99.745164 
L 190.866797 106.595803 
L 193.994686 112.641232 
L 197.01873 117.941706 
L 200.047798 122.73686 
L 202.957565 126.912831 
L 205.784745 130.628921 
L 209.688464 135.319168 
L 214.138124 140.202911 
L 219.424791 145.576419 
L 226.217672 152.071452 
L 234.425327 159.590281 
L 245.126597 169.096253 
L 254.936474 177.548719 
L 264.223477 185.245314 
L 271.927479 191.327313 
L 278.762768 196.436695 
L 285.586353 201.221975 
L 290.864738 204.682135 
L 296.440402 208.089552 
L 301.565635 210.985368 
L 306.640782 213.622088 
L 307.959186 214.268889 
L 307.959186 214.268889 
" clip-path="url(#p2f0a8ba294)" style="fill: none; stroke: #0010ff; stroke-width: 2; stroke-linecap: square"/>
   </g>
   <g id="line2d_116">
    <path d="M -1 31.684271 
L 62.888616 31.788707 
L 82.782096 31.998434 
L 97.783455 32.363165 
L 108.583192 32.831536 
L 117.804021 33.457023 
L 124.711622 34.128838 
L 131.630211 35.051497 
L 138.415341 36.299712 
L 142.005232 37.14796 
L 145.08847 38.011566 
L 148.475962 39.13903 
L 151.40878 40.302187 
L 153.994661 41.505361 
L 156.810421 43.047299 
L 159.304897 44.658245 
L 161.543954 46.339367 
L 163.699641 48.20469 
L 165.661929 50.144768 
L 167.462682 52.153932 
L 169.298015 54.450747 
L 170.991291 56.811476 
L 174.005526 61.630673 
L 176.633435 66.501349 
L 178.984876 71.375741 
L 181.412023 76.866046 
L 185.062848 85.790833 
L 194.821921 110.328753 
L 198.021474 117.663202 
L 201.551455 125.108788 
L 204.662466 131.122955 
L 207.969837 137.0144 
L 211.853421 143.372239 
L 215.186358 148.428933 
L 219.021255 153.871583 
L 223.077279 159.262997 
L 227.13016 164.332302 
L 232.396748 170.508939 
L 237.205855 175.786156 
L 242.643705 181.367581 
L 248.14053 186.610972 
L 252.35155 190.361757 
L 256.679979 193.978016 
L 261.077913 197.404975 
L 265.538443 200.627911 
L 270.04637 203.630521 
L 274.626747 206.426478 
L 279.272203 209.010581 
L 283.966857 211.379097 
L 288.65548 213.51776 
L 293.300217 215.430623 
L 299.119233 217.563838 
L 304.723581 219.365903 
L 307.936819 220.294879 
L 307.936819 220.294879 
" clip-path="url(#p2f0a8ba294)" style="fill: none; stroke: #eb00ff; stroke-width: 2; stroke-linecap: square"/>
   </g>
   <g id="line2d_117">
    <path d="M -1 31.700814 
L 36.494061 31.807836 
L 56.253771 32.043752 
L 69.286543 32.418337 
L 79.412665 32.948947 
L 87.500806 33.609005 
L 94.64868 34.441985 
L 99.094657 35.119344 
L 103.561256 35.961519 
L 108.379983 37.106856 
L 113.232963 38.5955 
L 116.109179 39.688322 
L 118.650969 40.820177 
L 121.329314 42.218195 
L 124.069025 43.912853 
L 126.503648 45.689254 
L 128.97144 47.798316 
L 131.436371 50.266011 
L 133.6516 52.834464 
L 135.733663 55.583875 
L 137.699261 58.500055 
L 139.5028 61.461959 
L 141.240326 64.578721 
L 144.472635 71.049151 
L 147.696052 78.29116 
L 150.711523 85.628554 
L 156.463479 100.409282 
L 162.001964 114.487078 
L 166.073974 124.13666 
L 168.795932 130.118677 
L 171.378133 135.41165 
L 173.86751 140.156002 
L 176.649838 145.050798 
L 179.427295 149.528876 
L 182.285767 153.743676 
L 185.165256 157.6237 
L 187.932008 161.043664 
L 191.977261 165.573806 
L 195.528692 169.160217 
L 199.138438 172.492371 
L 202.927784 175.70262 
L 207.168954 178.998927 
L 211.286019 181.943573 
L 216.791448 185.553614 
L 222.388619 188.91253 
L 228.174264 192.129719 
L 234.844379 195.602067 
L 243.916966 200.047597 
L 253.984098 204.712618 
L 262.992118 208.640845 
L 270.756171 211.788841 
L 277.492816 214.310375 
L 284.553608 216.730516 
L 291.858918 218.995621 
L 299.757309 221.180615 
L 307.071941 222.963056 
L 307.942666 223.159473 
L 307.942666 223.159473 
" clip-path="url(#p2f0a8ba294)" style="fill: none; stroke: #ff0018; stroke-width: 2; stroke-linecap: square"/>
   </g>
   <g id="patch_9">
    <path d="M 120.96 190.08 
L 120.96 31.68 
" style="fill: none; stroke: #000000; stroke-width: 0.8; stroke-linejoin: miter; stroke-linecap: square"/>
   </g>
   <g id="patch_10">
    <path d="M 272.16 190.08 
L 272.16 31.68 
" style="fill: none; stroke: #000000; stroke-width: 0.8; stroke-linejoin: miter; stroke-linecap: square"/>
   </g>
   <g id="patch_11">
    <path d="M 120.96 190.08 
L 272.16 190.08 
" style="fill: none; stroke: #000000; stroke-width: 0.8; stroke-linejoin: miter; stroke-linecap: square"/>
   </g>
   <g id="patch_12">
    <path d="M 120.96 31.68 
L 272.16 31.68 
" style="fill: none; stroke: #000000; stroke-width: 0.8; stroke-linejoin: miter; stroke-linecap: square"/>
   </g>
   <g id="text_30">
    <!-- (a) -->
    <g transform="translate(359.927475 244.28313) scale(0.32 -0.32)">
     <defs>
      <path id="CMR17-28" d="M 1958 -1561 
C 1958 -1555 1958 -1542 1939 -1523 
C 1645 -1224 858 -407 858 1581 
C 858 3569 1632 4379 1946 4697 
C 1946 4704 1958 4717 1958 4736 
C 1958 4755 1939 4768 1914 4768 
C 1843 4768 1299 4296 986 3594 
C 666 2887 576 2199 576 1588 
C 576 1128 621 351 1005 -471 
C 1312 -1135 1837 -1600 1914 -1600 
C 1946 -1600 1958 -1587 1958 -1561 
z
" transform="scale(0.015625)"/>
      <path id="CMR17-29" d="M 1683 1581 
C 1683 2040 1638 2817 1254 3639 
C 947 4303 422 4768 346 4768 
C 326 4768 301 4761 301 4729 
C 301 4717 307 4710 314 4697 
C 621 4378 1402 3568 1402 1584 
C 1402 -407 627 -1217 314 -1537 
C 307 -1549 301 -1556 301 -1568 
C 301 -1600 326 -1600 346 -1600 
C 416 -1600 960 -1128 1274 -426 
C 1594 281 1683 969 1683 1581 
z
" transform="scale(0.015625)"/>
     </defs>
     <use xlink:href="#CMR17-28" transform="scale(0.996264)"/>
     <use xlink:href="#CMR17-61" transform="translate(35.280768 0) scale(0.996264)"/>
     <use xlink:href="#CMR17-29" transform="translate(80.971245 0) scale(0.996264)"/>
    </g>
   </g>
  </g>
 </g>
 <defs>
  <clipPath id="pc0a0bf622f">
   <rect x="65.46142" y="11.302443" width="363.53834" height="323.584288"/>
  </clipPath>
  <clipPath id="p2f0a8ba294">
   <rect x="120.96" y="31.68" width="151.2" height="158.4"/>
  </clipPath>
 </defs>
</svg>
